<svg xmlns="http://www.w3.org/2000/svg" width="150" height="30" viewBox="0 0 150 30">
  <g id="Group_1614" data-name="Group 1614" transform="translate(-1621 -327)">
    <g id="Group_1613" data-name="Group 1613" transform="translate(-19 -44)">
      <g id="Rectangle_618" data-name="Rectangle 618" transform="translate(1648 371)" fill="#fff" stroke="#fff" stroke-width="1">
        <rect width="18" height="4" stroke="none"/>
        <rect x="0.5" y="0.5" width="17" height="3" fill="none"/>
      </g>
      <g id="Rectangle_620" data-name="Rectangle 620" transform="translate(1649 377)" fill="#fff" stroke="#fff" stroke-width="1">
        <rect width="21" height="5" stroke="none"/>
        <rect x="0.5" y="0.5" width="20" height="4" fill="none"/>
      </g>
      <g id="Rectangle_621" data-name="Rectangle 621" transform="translate(1645 384)" fill="#fff" stroke="#fff" stroke-width="1">
        <rect width="12" height="4" stroke="none"/>
        <rect x="0.5" y="0.5" width="11" height="3" fill="none"/>
      </g>
      <g id="Rectangle_623" data-name="Rectangle 623" transform="translate(1640 390)" fill="#fff" stroke="#fff" stroke-width="1">
        <rect width="26" height="5" stroke="none"/>
        <rect x="0.5" y="0.5" width="25" height="4" fill="none"/>
      </g>
      <g id="Rectangle_624" data-name="Rectangle 624" transform="translate(1667 390)" fill="#fff" stroke="#fff" stroke-width="1">
        <rect width="7" height="5" stroke="none"/>
        <rect x="0.5" y="0.5" width="6" height="4" fill="none"/>
      </g>
      <g id="Rectangle_625" data-name="Rectangle 625" transform="translate(1647 397)" fill="#fff" stroke="#fff" stroke-width="1">
        <rect width="24" height="4" stroke="none"/>
        <rect x="0.5" y="0.5" width="23" height="3" fill="none"/>
      </g>
      <g id="Rectangle_622" data-name="Rectangle 622" transform="translate(1659 384)" fill="#fff" stroke="#fff" stroke-width="1">
        <rect width="6" height="4" stroke="none"/>
        <rect x="0.5" y="0.5" width="5" height="3" fill="none"/>
      </g>
      <g id="Rectangle_619" data-name="Rectangle 619" transform="translate(1640 371)" fill="#fff" stroke="#fff" stroke-width="1">
        <rect width="6" height="4" stroke="none"/>
        <rect x="0.5" y="0.5" width="5" height="3" fill="none"/>
      </g>
    </g>
    <text id="Baserow.io" transform="translate(1664 350)" fill="#fff" font-size="21" font-family="NunitoSans-Bold, Nunito Sans" font-weight="700"><tspan x="0" y="0">Baserow.io</tspan></text>
  </g>
</svg>
