<svg id="_x31__x2C_5" enable-background="new 0 0 24 24" height="512" viewBox="0 0 24 24" width="512" xmlns="http://www.w3.org/2000/svg"><path fill="#007bff" d="m20 3.5h-3c-.965 0-1.75-.785-1.75-1.75 0-.138-.112-.25-.25-.25-.414 0-.75-.336-.75-.75s.336-.75.75-.75c.965 0 1.75.785 1.75 1.75 0 .138.112.25.25.25h3c.138 0 .25-.112.25-.25 0-.965.785-1.75 1.75-1.75.414 0 .75.336.75.75s-.336.75-.75.75c-.138 0-.25.112-.25.25 0 .965-.785 1.75-1.75 1.75z"/><path fill="#007bff" d="m21.75 18h-6.5c-1.24 0-2.25-1.01-2.25-2.25v-13.5c0-1.24 1.01-2.25 2.25-2.25h6.5c1.24 0 2.25 1.01 2.25 2.25v13.5c0 1.24-1.01 2.25-2.25 2.25zm-6.5-16.5c-.413 0-.75.337-.75.75v13.5c0 .413.337.75.75.75h6.5c.413 0 .75-.337.75-.75v-13.5c0-.413-.337-.75-.75-.75z"/><path fill="#007bff" d="m8.75 24h-6.5c-1.24 0-2.25-1.01-2.25-2.25v-13.5c0-1.24 1.01-2.25 2.25-2.25h6.5c1.24 0 2.25 1.01 2.25 2.25v13.5c0 1.24-1.01 2.25-2.25 2.25zm-6.5-16.5c-.413 0-.75.337-.75.75v13.5c0 .413.337.75.75.75h6.5c.413 0 .75-.337.75-.75v-13.5c0-.413-.337-.75-.75-.75z"/><path fill="#007bff" d="m10.25 21h-9.5c-.414 0-.75-.336-.75-.75s.336-.75.75-.75h9.5c.414 0 .75.336.75.75s-.336.75-.75.75z"/><path fill="#007bff" d="m7.583 5c-.19 0-.38-.072-.526-.216l-1.333-1.312c-.295-.29-.299-.766-.008-1.061.29-.295.764-.301 1.06-.008l.807.794.808-.794c.297-.292.771-.284 1.061.008.291.296.287.771-.008 1.061l-1.335 1.312c-.146.144-.336.216-.526.216z"/><path fill="#007bff" d="m7.583 5c-.414 0-.75-.336-.75-.75v-1.75c0-1.379 1.134-2.5 2.528-2.5h.889c.414 0 .75.336.75.75s-.336.75-.75.75h-.889c-.567 0-1.028.448-1.028 1v1.75c0 .414-.336.75-.75.75z"/><path fill="#007bff" d="m17.75 21.812c-.19 0-.38-.071-.526-.216l-.807-.794-.808.794c-.297.293-.771.286-1.061-.008-.291-.296-.287-.771.008-1.061l1.334-1.312c.293-.287.76-.287 1.053 0l1.333 1.312c.295.29.299.766.008 1.061-.146.149-.34.224-.534.224z"/><path fill="#007bff" d="m14.639 24h-.889c-.414 0-.75-.336-.75-.75s.336-.75.75-.75h.889c.567 0 1.028-.448 1.028-1v-1.75c0-.414.336-.75.75-.75s.75.336.75.75v1.75c0 1.379-1.134 2.5-2.528 2.5z"/></svg>