<svg id="Group_1633" data-name="Group 1633" xmlns="http://www.w3.org/2000/svg" width="40" height="40" viewBox="0 0 40 40">
  <path id="Path_866" data-name="Path 866" d="M0,0H40V40H0Z" fill="none"/>
  <path id="Path_867" data-name="Path 867" d="M4,19A13.333,13.333,0,0,1,15.667,30.667a10,10,0,0,0,5-8.333A15,15,0,0,0,30.667,9a5,5,0,0,0-5-5A15,15,0,0,0,12.333,14,10,10,0,0,0,4,19" transform="translate(2.667 2.667)" fill="none" stroke="#ca778d" stroke-linecap="round" stroke-linejoin="round" stroke-width="2.5"/>
  <path id="Path_868" data-name="Path 868" d="M9.034,14a10,10,0,0,0-5,10,10,10,0,0,0,10-5" transform="translate(2.633 9.333)" fill="none" stroke="#ca778d" stroke-linecap="round" stroke-linejoin="round" stroke-width="2.5"/>
  <circle id="Ellipse_76" data-name="Ellipse 76" cx="1.667" cy="1.667" r="1.667" transform="translate(23.333 13.333)" fill="none" stroke="#ca778d" stroke-linecap="round" stroke-linejoin="round" stroke-width="2.5"/>
</svg>
