<svg id="Group_1511" data-name="Group 1511" xmlns="http://www.w3.org/2000/svg" width="132" height="30.113" viewBox="0 0 132 30.113">
  <path id="Path_821" data-name="Path 821" d="M-498.618,118.782c1.163.557,2.454.819,3.418,1.812a5.831,5.831,0,0,1,1.521,6.373,5.962,5.962,0,0,1-5.221,3.975,5.725,5.725,0,0,1-5.776-3.336,1.749,1.749,0,0,0-1.911-1.172c-2.131.063-4.266.009-6.4.023-2.109.014-3.14.963-3.32,3.043a5.719,5.719,0,0,1-1.487,3.738c-.406.408-.528.7-.048,1.153a5.232,5.232,0,0,1,1.519,3.717c.129,2.918,2.366,3.276,4.407,3.111.463-.038.469-.382.606-.663,1.493-3.066,3.951-4.341,7.017-3.642A5.889,5.889,0,0,1-499.7,142.8c-.024,3.008-1.873,5.107-5.141,5.853-.118.027-.213.156-.318.238h-1.422c-1.652-.758-3.531-1.3-4.271-3.174a2.165,2.165,0,0,0-2.447-1.506,5.8,5.8,0,0,1-6.072-5.784,3.423,3.423,0,0,0-.692-1.968,2.267,2.267,0,0,0-3.921.24c-2.258,4-8.06,4.25-10.264.289a2.718,2.718,0,0,0-3.174-1.683,3.391,3.391,0,0,1-.851,0,1.651,1.651,0,0,0-1.931,1.138,5.584,5.584,0,0,1-5.471,3.349c-3.054-.062-4.764-1.917-5.854-4.538v-3.125a7.679,7.679,0,0,0,.515-.811,5.755,5.755,0,0,1,5.113-3.491,5.32,5.32,0,0,1,5.352,2.81,2.537,2.537,0,0,0,2.977,1.6,5.144,5.144,0,0,1,1.277,0,1.415,1.415,0,0,0,1.614-.969,5.679,5.679,0,0,1,5.431-3.443,5.516,5.516,0,0,1,5.345,3.318,1.68,1.68,0,0,0,2.131,1.053,2.875,2.875,0,0,0,2.39-2.923,5.908,5.908,0,0,1,6.209-5.846c2.322-.019,4.645,0,6.968-.006.464,0,1.017.113,1.213-.476.8-2.411,2.8-3.381,4.956-4.168Zm-30.61,17.945a3,3,0,0,0,2.957-2.84,3.045,3.045,0,0,0-2.93-3.052,2.994,2.994,0,0,0-3,2.968A2.848,2.848,0,0,0-529.228,136.727Zm20.6,6.027a3,3,0,0,0,2.985,2.957,3.073,3.073,0,0,0,2.915-2.925,3.031,3.031,0,0,0-2.969-3.009A2.877,2.877,0,0,0-508.623,142.754Zm-36.981-6.025a3,3,0,0,0,3.031-2.914,3.122,3.122,0,0,0-3.014-2.986,3.1,3.1,0,0,0-2.957,3.035A3,3,0,0,0-545.6,136.729Zm46.267-8.819a3.088,3.088,0,0,0,2.987-2.992,3.074,3.074,0,0,0-2.893-2.942,3.123,3.123,0,0,0-3.065,2.92A3.108,3.108,0,0,0-499.337,127.91Z" transform="translate(551.532 -118.782)" fill="#fff"/>
  <path id="Path_822" data-name="Path 822" d="M-120.716,164.5a7.049,7.049,0,0,1-4.521,4.505,6.672,6.672,0,0,1-8.231-3.967,6.3,6.3,0,0,1,3.635-8.055,6.7,6.7,0,0,1,8.708,3.429c.105.237.052.587.408.678Zm-10.6-1.672a4.075,4.075,0,0,0,4.093,4.3,4.013,4.013,0,0,0,4.025-4.2,4.075,4.075,0,0,0-4.071-4.321A4.094,4.094,0,0,0-131.314,162.828Z" transform="translate(252.716 -145.751)" fill="#fff"/>
  <path id="Path_823" data-name="Path 823" d="M-272.241,148.323c1.848,1.265,2.871,2.862,2.2,5.165-.745,2.544-3.767,4.207-6.739,3.693-3.166-.547-5.058-2.645-4.889-5.427A4.8,4.8,0,0,1-279.6,148.2c.441-.342.545-.515.059-.918-2.794-2.314-1.394-6.712,2.447-7.5,3.232-.66,6.278.965,6.729,3.791C-270.064,145.485-270.97,146.953-272.241,148.323Zm-3.643,6.619a3.359,3.359,0,0,0,3.426-2.295c.308-1.178-.256-2.008-1.959-2.848-.464-.229-.97-.379-1.419-.631a1.787,1.787,0,0,0-2.545.723,2.967,2.967,0,0,0-.472,3.3A3.313,3.313,0,0,0-275.884,154.942Zm3.071-10.388a2.433,2.433,0,0,0-2.3-2.574,2.981,2.981,0,0,0-3.315,1.606c-.4,1.163.152,2.135,1.654,2.885.211.105.431.194.649.286C-274.138,147.6-272.866,146.753-272.813,144.554Z" transform="translate(358.485 -133.703)" fill="#fff"/>
  <path id="Path_824" data-name="Path 824" d="M-228.809,158.7a5.41,5.41,0,0,1,4.452-2.076c2.47.085,3.878,1.306,4,3.8.088,1.791.049,3.59.035,5.385-.005.675.009,1.15.934,1.179,1.033.033.445.933.552,1.442.118.56-.246.663-.757.7-2.791.215-3.2-.157-3.2-3.01,0-1.559.024-3.119-.006-4.678-.047-2.4-1.712-3.342-3.864-2.2a3.871,3.871,0,0,0-2.2,3.4c-.08,1.792-.115,3.592-.043,5.383.042,1.048-.456,1.1-1.274,1.123-.891.026-1.251-.182-1.226-1.162.067-2.6.017-5.2.026-7.8,0-.642.061-1.188-.9-1.219-1.043-.034-.433-.926-.545-1.424-.148-.658.363-.624.8-.616.237,0,.473,0,.71,0C-229.4,156.927-229.4,156.927-228.809,158.7Z" transform="translate(323.585 -145.852)" fill="#fff"/>
  <path id="Path_825" data-name="Path 825" d="M-334.406,158.979a5.21,5.21,0,0,1,4.989-2.354,3.405,3.405,0,0,1,3.43,2.8c.518,2.1.191,4.235.26,6.354.021.638-.073,1.172.895,1.2,1.019.027.441.93.554,1.438.125.569-.233.725-.749.7s-1.041,0-1.562-.006a1.462,1.462,0,0,1-1.634-1.677c.005-1.843.009-3.687,0-5.531-.007-1.191.052-2.454-1.385-2.946a3.794,3.794,0,0,0-3.909,1.405,5.344,5.344,0,0,0-.922,3.207c.01,1.512-.055,3.028.022,4.537.051,1-.461,1.037-1.21,1.02-.7-.016-1.272.053-1.246-.985.065-2.6.013-5.2.026-7.8,0-.744.076-1.408-1.039-1.4-.848.01-.441-.767-.513-1.21-.075-.461.01-.847.641-.821.709.029,1.422-.028,2.129.019C-334.466,157.01-334.547,157.983-334.406,158.979Z" transform="translate(399.086 -145.841)" fill="#fff"/>
  <path id="Path_826" data-name="Path 826" d="M-158.364,164.37c0-1.038,0-2.076,0-3.114,0-.772.236-1.6-1.1-1.62-.683-.011-.252-.845-.346-1.3-.087-.422.046-.73.585-.7a10.545,10.545,0,0,0,1.558,0c1.324-.127,1.794.589,1.8,1.765.011,2.406.017,4.813,0,7.219-.005.628.012,1.061.862,1.077,1.045.019.48.907.586,1.41.145.683-.319.758-.854.732-.471-.023-.945-.013-1.417,0a1.463,1.463,0,0,1-1.668-1.643C-158.378,166.918-158.363,165.644-158.364,164.37Z" transform="translate(271.332 -146.565)" fill="#fff"/>
  <path id="Path_827" data-name="Path 827" d="M-153.914,142.2a2.207,2.207,0,0,1-2.221,2.116,2.262,2.262,0,0,1-2.2-2.291,2.2,2.2,0,0,1,2.229-2.1A2.191,2.191,0,0,1-153.914,142.2Zm-1.13-.23c-.161-.459-.443-.96-1.128-.913a1,1,0,0,0-1,1.139.977.977,0,0,0,1.022.977C-155.534,143.148-155.1,142.78-155.044,141.968Z" transform="translate(270.248 -133.907)" fill="#fff"/>
  <path id="Path_828" data-name="Path 828" d="M-171.587,193.043c.224.932-.544.835-1.367.9-1.4.119-.993-.832-1.1-1.562-.179-1.269.688-.992,1.414-1.076C-171.295,191.153-171.686,192.1-171.587,193.043Z" transform="translate(281.503 -170.655)" fill="#fff"/>
</svg>
