<svg xmlns="http://www.w3.org/2000/svg" viewBox="0 0 168.92 231.47"><defs><style>.cls-1{fill:#FFA45B;}</style></defs><title>Asset 3</title><g id="Layer_2" data-name="Layer 2"><g id="Layer_1-2" data-name="Layer 1"><path class="cls-1" d="M84.93,231.47a84.31,84.31,0,0,1-9.85-.58,75.91,75.91,0,0,1-25.93-7.45,79.05,79.05,0,0,1-21.5-16.07A92.52,92.52,0,0,1,5.08,170.61,107.65,107.65,0,0,1,.45,149.85L0,146.07V140l.25-1.62c.14-.91.27-1.81.45-2.71a24.72,24.72,0,0,1,17.43-19.28,26.87,26.87,0,0,1-.56-20.83,26.35,26.35,0,0,1,8.35-10.7A77.19,77.19,0,0,1,51,71.81c.52-.16,1.84-.53,3.53-.94a85.53,85.53,0,0,1,15.29-2.2c3-.21,6.09-.29,9.14-.26h.28c2,.1,4,.29,6,.58A65.26,65.26,0,0,1,94,70.89c1.28.37,2.39.73,3.46,1.1a128.17,128.17,0,0,0-8.85-13.22,80.22,80.22,0,0,0-6.69-8.1l-.19-.19c-.89-.9-2.74-2.77-4.94-5.42a33.79,33.79,0,0,1-3.85-5.28,30.37,30.37,0,0,1-3.18-9.52A25.93,25.93,0,0,1,89.36.77C90.11.59,90.87.44,91.63.3L93.17,0h5.57l.8.31a27.33,27.33,0,0,1,15.71,8.5c4.32,4.53,8.58,9.47,12.65,14.69,1.23,1.58,2.49,3.25,3.73,4.95l.1.14,5,7.25a198.91,198.91,0,0,1,20.82,41.27l.55,1.22v.3l.75,2.09,0,.09,1.89,5.56q.54,1.71,1,3.43l.35,1.17a196.07,196.07,0,0,1,5.1,23.55v0c.05.35,1.23,8.75,1.5,16.58.42,12.09,1.39,40.4-16.37,65.19A86.09,86.09,0,0,1,127,219.71a83.32,83.32,0,0,1-22.19,9.34A81.44,81.44,0,0,1,84.93,231.47ZM15,145.18l.34,2.87a92.7,92.7,0,0,0,4,17.87,77.66,77.66,0,0,0,18.93,30.87A64.64,64.64,0,0,0,55.84,210a60.83,60.83,0,0,0,21,6,67.45,67.45,0,0,0,24.28-1.49,68.12,68.12,0,0,0,18.14-7.66,71,71,0,0,0,20.94-19.27c14.79-20.64,14-44.48,13.57-55.94-.24-6.9-1.3-14.58-1.36-15a183.77,183.77,0,0,0-4.65-21.5l-.32-1.09c-.31-1-.62-2.08-1-3.12l-2.89-8.51a183.86,183.86,0,0,0-19.26-38.25l-4.85-7c-1.13-1.55-2.28-3.07-3.4-4.5-3.77-4.83-7.69-9.39-11.67-13.56a12.3,12.3,0,0,0-7.66-4.1L96.33,15h-1.7l-.23,0c-.51.1-1,.19-1.54.31a11,11,0,0,0-8.32,12.57A16.24,16.24,0,0,0,86,32.45a21.6,21.6,0,0,0,2.3,3c1.79,2.15,3.27,3.65,4.07,4.45l.21.22a93.09,93.09,0,0,1,7.91,9.51,151.29,151.29,0,0,1,19.07,33.12l.21.53.09.24,6.39,16.1-18.8-7.42c-4.49-1.76-7.46-3-9.84-4a60.92,60.92,0,0,0-7.77-2.9,50.37,50.37,0,0,0-6.71-1.47c-1.47-.21-3-.36-4.46-.44-2.62,0-5.24.05-7.82.23a71.21,71.21,0,0,0-12.78,1.81c-1.4.34-2.43.64-2.68.71A62.24,62.24,0,0,0,35.17,96.64a11.29,11.29,0,0,0-3.73,4.6c-1.52,3.68-.59,9.73,3.21,12.86A12.55,12.55,0,0,0,45,116.87a13.59,13.59,0,0,0,5.77-2.45,40.78,40.78,0,0,1,38.48-4.31,34.28,34.28,0,0,1,4.49,61.21A33.89,33.89,0,0,1,66,174.68c-14.82-4.55-25.78-17.76-27.27-32.87a11.43,11.43,0,0,0-6.41-9.66,13.21,13.21,0,0,0-8.65-1.7,9.75,9.75,0,0,0-8.24,8c-.13.69-.23,1.38-.34,2.08l-.09.57Zm36-14.33a28,28,0,0,1,2.6,9.49,23.79,23.79,0,0,0,16.75,20A19.08,19.08,0,0,0,86,158.45,19.28,19.28,0,0,0,83.5,124a25.79,25.79,0,0,0-24.27,2.85A30.18,30.18,0,0,1,51,130.84Zm98.1-50.91h0Z"/></g></g></svg>