<?xml version="1.0" encoding="utf-8"?>
<!-- Generator: Adobe Illustrator 21.1.0, SVG Export Plug-In . SVG Version: 6.00 Build 0)  -->
<svg version="1.1" id="Layer_1" xmlns="http://www.w3.org/2000/svg" xmlns:xlink="http://www.w3.org/1999/xlink" x="0px" y="0px"
	 viewBox="0 0 346 346" style="enable-background:new 0 0 346 346;" xml:space="preserve">
<style type="text/css">
	.st0{display:none;fill:#CBDEF3;stroke:#CBDEF3;stroke-width:5;}
	.st1{fill:#FFA45B;}
</style>
<g>
	<g>
		<path id="Path_311_1_" class="st0" d="M225.3,226.8c-0.1-3.4-0.3-6.7-0.5-9.9c-0.1-1.3-0.2-2.6-0.3-3.8
			c-0.5-6.1-1.4-12.1-2.6-18.1c-0.1-0.7-0.3-1.3-0.4-2c-0.7-3.3-1.5-6.6-2.4-9.9c-0.5-1.8-1-3.5-1.5-5.3l0,0c-0.5-1.7-1-3.4-1.5-5.1
			l0,0c-2.2-6.8-4.6-13.5-7.4-20c-4.1-9.6-8.8-18.9-14.2-27.9c-1.9-3.2-3.9-6.3-5.9-9.3c-0.6-0.9-1.2-1.8-1.8-2.7
			c-6.2-8.9-13-17.3-20.4-25.2c-1.5-1.6-3.1-3-5-4.2c-5.8-3.6-13.2-3.2-18.4,1.2c-4.1,3.5-6.4,8-5.8,13.5c0.4,3.8,2,7.4,4.6,10.2
			c4,4.6,8.3,9.1,12.2,13.9c7.6,9.3,14.2,19.3,19.7,30c4.3,8.3,8.1,17,11.2,25.8c0.5,1.5,1.3,2.9,2.4,4c4.3,4.4,8,9.4,11.1,14.6
			c4.6,7.7,7.8,16.1,9.4,24.9c0.7,3.7,0.9,7.5,1.4,11.3c0.1,1.3,0.3,2.6,0.3,3.9c0.1,1.8-1.3,3.4-3.2,3.4c-0.4,0-0.8,0-1.2-0.2
			c-1.4-0.4-2.3-1.7-2.4-3.7c-0.2-2.5-0.4-5.1-0.7-7.6c-0.8-6.7-2.4-13.2-4.8-19.5c-3.6-9.6-9.4-18.2-16.9-25.1
			c-7.5-6.9-16.2-11.7-25.6-15.4c-8.4-3.3-17.2-5-26.2-5.3c-6.5-0.2-13,0.6-19.3,2.2c-8.6,2.2-16.8,5.7-24.3,10.5
			c-2.6,1.5-5.1,3.2-7.4,5.2c-5,4.4-6.3,10-4.6,16.3c2.2,7.8,10.4,12.8,18.8,11.6c3.4-0.6,6.6-1.9,9.5-3.9
			c10.9-7.4,24.5-9.7,37.2-6.4c10.6,2.6,19,8.4,24.7,17.8c5.3,8.5,7.1,18.8,5,28.6c-3.7,16.9-17.9,29.5-35.1,31.1
			c-8.1,0.6-16.2-1.2-23.3-5.3c-9.7-5.4-16.6-13.2-20.4-23.6c-1.1-3.6-2-7.3-2.8-11.1c-0.7-2.7-1.3-5.5-3-7.8
			c-3.7-5.4-10.1-8.4-16.6-7.7c-4,0.2-7.8,2.2-10.3,5.3c-2.3,2.8-3.5,6.4-3.5,10c0,2.5,0.2,5.1,0.4,7.6c0.7,7.7,2.3,15.4,4.8,22.8
			c5.8,17.4,16.2,33,30.2,44.9c12.3,10.9,27.9,17.4,44.4,18.6c8.5,0.6,17.1,0.2,25.5-1.3c7.4-1.3,14.7-3,21.9-5.3
			c7.3-2,14.1-5.5,20-10.2c6.6-5.5,11.7-12.6,14.9-20.6c5-12.3,8.2-25.3,9.4-38.5c0.7-6.4,1.1-12.9,1-19.4
			C225.4,231.9,225.3,229.3,225.3,226.8z"/>
	</g>
</g>
<path id="Path_318_1_" class="st1" d="M287.8,58c-3.4-3.4-8.7-3.4-12.1,0l-24.5,24.5c-3.4,3.4-3.4,8.7,0,12.1
	c3.4,3.4,8.7,3.4,12.1,0l24.5-24.5C291.1,66.6,291.1,61.2,287.8,58L287.8,58z"/>
<path id="Path_319_1_" class="st1" d="M219.4,55.7l4.2-38.3c0.5-4.7-3-8.7-7.7-9.2c-4.5-0.5-8.6,2.9-9.2,7.4l-4.2,38.3
	c-0.5,4.7,2.9,8.9,7.6,9.4C214.7,63.7,218.9,60.4,219.4,55.7L219.4,55.7z"/>
<path id="Path_320_1_" class="st1" d="M337.8,129.8c-0.5-4.7-4.7-8.1-9.4-7.6l-38.3,4.2c-4.7,0.7-7.9,4.9-7.2,9.6
	c0.7,4.4,4.5,7.7,9.1,7.2l38.3-4.2C335,138.7,338.3,134.5,337.8,129.8L337.8,129.8z"/>
<title>Asset 3</title>
<g id="Layer_2">
	<g id="Layer_1-2">
		<path class="st1" d="M142.7,330.9c-3.8,0-7.6-0.2-11.4-0.7c-10.4-1.1-20.6-4-30-8.6c-9.3-4.7-17.7-11-24.9-18.6
			c-11.9-11.9-20.9-26.5-26.1-42.5c-2.6-7.8-4.4-15.8-5.4-24l-0.5-4.4v-7l0.3-1.9c0.2-1.1,0.3-2.1,0.5-3.1
			c2-10.6,9.8-19.3,20.2-22.3c-3.4-7.6-3.7-16.3-0.6-24.1c2.1-4.9,5.4-9.2,9.7-12.4c8.7-6.8,18.5-11.9,29-15.1
			c0.6-0.2,2.1-0.6,4.1-1.1c5.8-1.4,11.7-2.2,17.7-2.5c3.5-0.2,7-0.3,10.6-0.3h0.3c2.3,0.1,4.6,0.3,6.9,0.7
			c3.4,0.5,6.8,1.2,10.1,2.2c1.5,0.4,2.8,0.8,4,1.3c-3.1-5.3-6.5-10.4-10.2-15.3c-2.4-3.3-5-6.4-7.7-9.4l-0.2-0.2
			c-1-1-3.2-3.2-5.7-6.3c-1.7-1.9-3.2-3.9-4.5-6.1c-1.8-3.4-3.1-7.2-3.7-11c-2.6-15.6,7.3-30.5,22.7-34.1c0.9-0.2,1.7-0.4,2.6-0.5
			l1.8-0.3h6.4l0.9,0.4c7,1.1,13.4,4.6,18.2,9.8c5,5.2,9.9,10.9,14.6,17c1.4,1.8,2.9,3.8,4.3,5.7l0.1,0.2l5.8,8.4
			c9.9,14.9,17.9,30.9,24.1,47.7l0.6,1.4v0.3l0.9,2.4v0.1l2.2,6.4c0.4,1.3,0.8,2.6,1.2,4l0.4,1.4c2.5,8.9,4.5,18,5.9,27.2l0,0
			c0.1,0.4,1.4,10.1,1.7,19.2c0.5,14,1.6,46.7-18.9,75.4c-7.8,10.9-17.8,20.1-29.3,27.1c-8,4.8-16.6,8.5-25.7,10.8
			C158.2,330,150.4,330.9,142.7,330.9z M61.8,231.2l0.4,3.3c0.9,7,2.4,13.9,4.6,20.7c4.4,13.5,11.9,25.7,21.9,35.7
			c5.8,6.2,12.7,11.4,20.3,15.3c7.6,3.8,15.8,6.1,24.3,6.9c9.4,1.1,18.9,0.5,28.1-1.7c7.4-1.9,14.4-4.9,21-8.9
			c9.5-5.7,17.7-13.3,24.2-22.3c17.1-23.9,16.2-51.4,15.7-64.7c-0.3-8-1.5-16.9-1.6-17.3c-1.3-8.4-3.1-16.7-5.4-24.9L215,172
			c-0.4-1.2-0.7-2.4-1.2-3.6l-3.3-9.8c-5.7-15.6-13.1-30.4-22.3-44.2l-5.6-8.1c-1.3-1.8-2.6-3.5-3.9-5.2
			c-4.4-5.6-8.9-10.9-13.5-15.7c-2.3-2.6-5.4-4.3-8.9-4.7l-0.4,0h-2h-0.3c-0.6,0.1-1.2,0.2-1.8,0.4c-6.5,1.5-10.8,7.9-9.6,14.5
			c0.3,1.8,0.9,3.6,1.7,5.3c0.8,1.2,1.7,2.4,2.7,3.5c2.1,2.5,3.8,4.2,4.7,5.1l0.2,0.3c3.3,3.5,6.3,7.1,9.1,11
			c8.9,11.8,16.3,24.6,22,38.3l0.2,0.6l0.1,0.3l7.4,18.6l-21.7-8.6c-5.2-2-8.6-3.5-11.4-4.6c-2.9-1.3-5.9-2.4-9-3.4
			c-2.5-0.7-5.1-1.3-7.8-1.7c-1.7-0.2-3.5-0.4-5.2-0.5c-3,0-6.1,0.1-9,0.3c-5,0.2-9.9,0.9-14.8,2.1c-1.6,0.4-2.8,0.7-3.1,0.8
			c-8.5,2.6-16.4,6.7-23.4,12.1c-1.9,1.4-3.4,3.2-4.3,5.3c-1.8,4.3-0.7,11.3,3.7,14.9c3.3,2.8,7.7,4,12,3.2c2.4-0.4,4.7-1.4,6.7-2.8
			c13-9,29.8-10.9,44.5-5c20.3,8.3,30,31.4,21.7,51.7c-3.3,8-9,14.7-16.5,19.1c-9.6,5.8-21.3,7.3-32.1,3.9
			c-17.1-5.3-29.8-20.5-31.5-38c-0.3-4.8-3.1-9.1-7.4-11.2c-3-1.8-6.5-2.5-10-2c-4.8,0.7-8.7,4.4-9.5,9.2c-0.2,0.8-0.3,1.6-0.4,2.4
			l-0.1,0.7V231.2z M103.5,214.6c1.6,3.5,2.7,7.2,3,11c1.3,10.9,8.9,20,19.4,23.1c6.1,1.9,12.7,1.1,18.1-2.2
			c10.6-6.3,14.1-19.9,7.9-30.5c-2.5-4.2-6.3-7.5-10.8-9.3c-9.3-3.7-19.9-2.4-28.1,3.3C110,212,106.8,213.5,103.5,214.6L103.5,214.6
			z M216.9,155.7L216.9,155.7z"/>
	</g>
</g>
</svg>
