<?xml version="1.0" encoding="iso-8859-1"?>
<!-- Generator: Adobe Illustrator 19.0.0, SVG Export Plug-In . SVG Version: 6.00 Build 0)  -->
<svg version="1.1" id="Capa_1" xmlns="http://www.w3.org/2000/svg" xmlns:xlink="http://www.w3.org/1999/xlink" x="0px" y="0px"
	 viewBox="0 0 511.998 511.998" style="enable-background:new 0 0 511.998 511.998;" xml:space="preserve">
<g>
	<g>
		<path fill="#007bff" d="M355.234,149.999h-25.521c-2.373-4.968-5.14-9.74-8.286-14.292l12.777-22.131c4.143-7.174,1.685-16.348-5.49-20.49
			l-51.961-30c-3.445-1.99-7.543-2.528-11.382-1.499c-3.843,1.029-7.119,3.543-9.108,6.989l-12.6,21.823
			c-5.807-0.535-11.053-0.535-16.859,0l-12.6-21.823c-1.989-3.445-5.266-5.959-9.108-6.989c-3.842-1.029-7.936-0.491-11.382,1.499
			l-51.961,30c-7.174,4.142-9.633,13.315-5.49,20.49l12.776,22.132c-3.146,4.552-5.912,9.324-8.285,14.292h-25.521
			c-8.284,0-15,6.716-15,15v60c0,8.283,6.716,14.998,15,14.998h25.521c2.373,4.968,5.14,9.74,8.285,14.292l-12.776,22.132
			c-4.143,7.174-1.684,16.348,5.49,20.49l51.961,30c3.445,1.989,7.542,2.528,11.382,1.499c3.843-1.029,7.119-3.543,9.108-6.989
			l12.6-21.823c5.807,0.535,11.053,0.535,16.859,0l12.6,21.823c4.165,7.214,13.361,9.607,20.49,5.49l51.961-30
			c7.175-4.142,9.633-13.316,5.49-20.49l-12.777-22.131c3.146-4.552,5.913-9.324,8.286-14.292h25.521c8.284,0,15-6.716,15-15v-60
			C370.234,156.715,363.518,149.999,355.234,149.999z M340.231,209.998h-20.512c-6.347,0-12.007,3.995-14.134,9.975
			c-3.033,8.534-7.6,16.409-13.57,23.406c-4.122,4.832-4.755,11.736-1.579,17.236l10.285,17.815l-25.98,15l-10.151-17.583
			c-2.712-4.697-7.698-7.501-12.986-7.501c-0.902,0-1.813,0.082-2.724,0.25c-5.186,0.956-9.522,1.401-13.648,1.401
			c-4.126,0-8.463-0.445-13.648-1.401c-6.237-1.151-12.536,1.753-15.71,7.251l-10.151,17.583l-25.98-15l10.284-17.815
			c3.176-5.5,2.543-12.403-1.579-17.235c-5.971-6.999-10.536-14.874-13.569-23.407c-2.127-5.98-7.787-9.975-14.134-9.975h-20.512
			v-30h20.512c6.347,0,12.007-3.995,14.134-9.975c3.033-8.533,7.599-16.408,13.569-23.407c4.122-4.832,4.755-11.735,1.579-17.235
			l-10.284-17.815l25.98-15l10.151,17.583c3.175,5.498,9.463,8.4,15.71,7.251c5.186-0.956,9.522-1.401,13.648-1.401
			c4.126,0,8.463,0.445,13.648,1.401c6.238,1.152,12.536-1.752,15.71-7.251l10.151-17.583l25.98,15l-10.285,17.815
			c-3.176,5.5-2.543,12.405,1.579,17.236c5.971,6.998,10.537,14.873,13.57,23.406c2.127,5.98,7.787,9.975,14.134,9.975h20.512
			V209.998z"/>
	</g>
</g>
<g>
	<g>
		<path fill="#007bff" d="M235.233,149.998c-24.813,0-45,20.187-45,45s20.186,45,45,45c24.813,0,45-20.187,45-45S260.046,149.998,235.233,149.998z
			 M235.233,209.998c-8.271,0-15-6.729-15-15s6.728-15,15-15c8.271,0,15,6.729,15,15S243.504,209.998,235.233,209.998z"/>
	</g>
</g>
<g>
	<g>
		<path fill="#007bff" d="M466.941,264.873l-36.742-73.482C428.086,77.471,328.653-12.031,212.246,1.323
			C125.417,11.28,53.857,81.251,42.093,167.699c-6.275,46.118,3.71,92.541,28.14,131.265v198.035c0,8.284,6.716,14.999,15,14.999
			h210c8.284,0,15-6.716,15-15v-46h48.517c22.646,0,41.843-16.946,44.655-39.438l10.087-81.563h13.2
			c15.71,0,30.021-7.979,38.279-21.342C473.232,295.291,473.967,278.924,466.941,264.873z M439.452,292.884
			c-1.321,2.139-5.211,7.114-12.76,7.114h-26.459c-7.572,0-13.957,5.644-14.887,13.159l-11.712,94.702
			c-0.937,7.491-7.336,13.14-14.885,13.14h-63.517c-8.284,0-15,6.716-15,15v46h-180V294.532c0-2.955-0.873-5.844-2.509-8.305
			c-22.205-33.398-31.404-74.055-25.903-114.483c9.941-73.061,70.438-132.199,143.845-140.617
			c102.174-11.72,184.568,68.541,184.568,163.871c0,2.329,0.542,4.625,1.584,6.708l38.292,76.583
			C443.484,285.04,440.774,290.745,439.452,292.884z"/>
	</g>
</g>
<g>
</g>
<g>
</g>
<g>
</g>
<g>
</g>
<g>
</g>
<g>
</g>
<g>
</g>
<g>
</g>
<g>
</g>
<g>
</g>
<g>
</g>
<g>
</g>
<g>
</g>
<g>
</g>
<g>
</g>
</svg>
