<?xml version="1.0" encoding="utf-8"?>
<!-- Generator: Adobe Illustrator 21.1.0, SVG Export Plug-In . SVG Version: 6.00 Build 0)  -->
<svg version="1.1" id="Layer_1" xmlns="http://www.w3.org/2000/svg" xmlns:xlink="http://www.w3.org/1999/xlink" x="0px" y="0px"
	 viewBox="0 0 346 346" style="enable-background:new 0 0 346 346;" xml:space="preserve">
<style type="text/css">
	.st0{clip-path:url(#SVGID_2_);fill:#447CBF;}
	.st1{clip-path:url(#SVGID_2_);}
	.st2{fill:#CBDEF3;stroke:#CBDEF3;stroke-width:5;}
	.st3{fill:#447CBF;}
	.st4{display:none;clip-path:url(#SVGID_2_);fill:#CBDEF3;stroke:#CBDEF3;stroke-width:5;}
</style>
<g>
	<defs>
		<rect id="SVGID_1_" y="0" width="346" height="346"/>
	</defs>
	<clipPath id="SVGID_2_">
		<use xlink:href="#SVGID_1_"  style="overflow:visible;"/>
	</clipPath>
	<path id="Path_318_1_" class="st0" d="M273.9,47c-2-2-5.2-2-7.2,0l-14.6,14.6c-2,2-2,5.2,0,7.2c2,2,5.2,2,7.2,0l14.6-14.6
		C275.9,52.1,275.9,48.9,273.9,47C273.9,47,273.9,47,273.9,47z"/>
	<path id="Path_319_1_" class="st0" d="M233.2,45.6l2.5-22.8c0.3-2.8-1.8-5.2-4.6-5.5c-2.7-0.3-5.1,1.7-5.5,4.4l-2.5,22.8
		c-0.3,2.8,1.7,5.3,4.5,5.6C230.4,50.4,232.9,48.4,233.2,45.6L233.2,45.6z"/>
	<path id="Path_320_1_" class="st0" d="M303.7,89.7c-0.3-2.8-2.8-4.8-5.6-4.5l-22.8,2.5c-2.8,0.4-4.7,2.9-4.3,5.7
		c0.4,2.6,2.7,4.6,5.4,4.3l22.8-2.5C302,95,304,92.5,303.7,89.7C303.7,89.7,303.7,89.7,303.7,89.7z"/>
	<g class="st1">
		<path class="st2" d="M246.7,139.8c-0.9-0.3-1.9-0.5-2.8-0.5c-1.5,0-3.1,0.4-4.4,1.1l0,0c-2.4,1.3-4.2,3.5-4.9,6.2l-0.1,0.2
			l-7.7,19.2l-2.7,6.6c0.4,1.3,0.8,2.7,1.2,4c0.1,0.5,0.3,0.9,0.4,1.4c2.7,8.9,4.6,18.1,5.9,27.3c0.5-1.1,1.1-2.3,1.7-3.6
			c7.4-16.2,13.7-32.9,18.9-50l0-0.1c0.8-2.4,0.6-5-0.5-7.3C250.7,142.3,248.9,140.6,246.7,139.8z"/>
		<path class="st2" d="M220.3,164.4c0.1-0.7,0.2-1.5,0.3-2.2v0c2.4-21.2,3.5-42.5,3.3-63.8v-0.1c0-3.6-1.3-7.1-3.8-9.8
			c-2.3-2.5-5.5-4.1-9-4.2c-0.1,0-0.3,0-0.4,0c-3.5,0-6.8,1.5-9.3,4h0c-2.8,2.8-4.2,6.6-4,10.5l0,0.2l0,0.2l-1.1,14.4
			c10,15.1,18.2,31.4,24.4,48.4C220.5,162.9,220.4,163.6,220.3,164.4z"/>
		<path class="st3" d="M248.9,133.5c-4.2-1.4-8.7-1-12.6,1.1c-3.1,1.7-5.6,4.3-7.1,7.5c1.1-14.4,1.5-29.1,1.3-43.7
			c0.1-5.3-1.9-10.5-5.6-14.3c-3.5-3.8-8.4-6.1-13.6-6.3c-5.5-0.1-10.8,2-14.7,6c-4,4.1-6.2,9.6-6,15.3l-0.5,6.1
			c-1.4-1.9-2.9-3.9-4.3-5.8c-4.6-6-9.5-11.7-14.7-17.1c-3.8-4.3-9.1-7-14.8-7.7c-0.1,0-0.3-0.1-0.4-0.1h-4.2
			c-1.1,0.2-2.3,0.4-3.4,0.7c-11.5,2.7-18.9,13.9-16.9,25.5c0.5,3,1.4,5.8,2.8,8.5c1.1,1.8,2.3,3.5,3.8,5.1c2.6,3.2,4.8,5.3,5.7,6.2
			c3.2,3.4,6.1,6.9,8.8,10.7c8.9,11.7,16.3,24.6,22,38.2c0.1,0.2,0.2,0.4,0.3,0.7c-1.2-0.5-2.2-0.9-3.3-1.3
			c-13.2-5.2-15.7-6.8-22.1-8.7c-3.1-0.9-6.2-1.6-9.3-2c-2.6-0.4-4.8-0.5-6.4-0.6c-4.1,0-7.7,0.1-10.4,0.3c-5.7,0.3-11.4,1.1-17,2.4
			c-1.9,0.5-3.3,0.9-3.8,1c-10,3-19.3,7.8-27.5,14.2c-3.2,2.4-5.7,5.6-7.3,9.3c-3.3,8-1.3,19.6,6.5,26.1c5.4,4.5,12.6,6.5,19.6,5.3
			c3.9-0.6,7.6-2.1,10.9-4.5c6.1-4.3,13.2-6.7,20.6-7.2c6-0.4,11.9,0.6,17.5,2.8c14.3,5.9,22.5,21,19.6,36.2
			c-0.2,1.1-0.5,2.1-0.8,3.2c-5.3,17.3-23.5,27-40.8,21.8c-13.9-4.3-25.2-16.7-26.7-32c-0.6-8-5.3-15.1-12.4-18.8
			c-4.9-2.8-10.6-3.9-16.2-3.1c-8.9,1.3-16,8.1-17.5,17c-0.3,1.4-0.5,2.8-0.7,4.2v6.1c0.2,1.3,0.3,2.7,0.5,4c1,8,2.7,15.8,5.2,23.4
			c5,15.5,13.6,29.5,25.1,41c6.9,7.1,14.9,13.1,23.7,17.8c7.4,3.9,15.4,6.6,23.7,7.9c3.2,0.5,6.4,0.7,9.6,1c0.2,0,0.5,0.1,0.7,0.1
			l9.5,0c1.8-0.2,3.5-0.2,5.3-0.5c4.8-0.6,9.5-1.2,14.3-2.1c8.4-1.5,16.6-3.8,24.5-6.9c13.5-5.1,24.4-15.2,30.7-28.2
			c3.8-7.9,6.6-16.3,8.5-24.9c1.8-7.6,3.1-15.3,3.8-23.1c0.5-5.1,0.8-10.3,1.2-15.4c0-0.4,0.1-0.8,0.1-1.2c0-2.8,0-6.2-0.2-10.3
			c-0.1-1.2-0.2-3.7-0.5-7c1.9-3.4,4-7.7,6.5-13c7.6-16.5,14-33.5,19.2-50.8C261.3,145.5,257,136.6,248.9,133.5z M197.3,99.3l0-0.2
			l0-0.2c-0.2-3.9,1.3-7.7,4-10.5h0c2.4-2.5,5.8-4,9.3-4c0.1,0,0.3,0,0.4,0c3.4,0.2,6.7,1.7,9,4.2c2.5,2.6,3.8,6.1,3.8,9.8v0.1
			c0.3,21.3-0.8,42.6-3.3,63.8v0c-0.1,0.7-0.2,1.5-0.3,2.2c0.1-0.7,0.2-1.5,0.3-2.2c-6.2-17-14.4-33.3-24.4-48.4L197.3,99.3z
			 M252.2,151.7L252.2,151.7c-5.1,17.2-11.4,33.9-18.9,50.1c-0.6,1.2-1.1,2.4-1.7,3.6c-1.3-9.2-3.2-18.4-5.9-27.3
			c-0.1-0.5-0.3-0.9-0.4-1.4c-0.4-1.3-0.8-2.7-1.2-4l2.7-6.6l7.7-19.2l0.1-0.2c0.7-2.7,2.5-4.9,4.9-6.2l0,0c1.4-0.7,2.9-1.1,4.4-1.1
			c1,0,1.9,0.2,2.8,0.5c2.2,0.8,4.1,2.5,5.1,4.7C252.8,146.7,253,149.3,252.2,151.7z"/>
	</g>
	<path id="Path_311_1_" class="st4" d="M225.3,226.8c-0.1-3.4-0.3-6.7-0.5-9.9c-0.1-1.3-0.2-2.6-0.3-3.8c-0.5-6.1-1.4-12.1-2.6-18.1
		c-0.1-0.7-0.3-1.3-0.4-2c-0.7-3.3-1.5-6.6-2.4-9.9c-0.5-1.8-1-3.5-1.5-5.3l0,0c-0.5-1.7-1-3.4-1.5-5.1l0,0
		c-2.2-6.8-4.6-13.5-7.4-20c-4.1-9.6-8.8-18.9-14.2-27.9c-1.9-3.2-3.9-6.3-5.9-9.3c-0.6-0.9-1.2-1.8-1.8-2.7
		c-6.2-8.9-13-17.3-20.4-25.2c-1.5-1.6-3.1-3-5-4.2c-5.8-3.6-13.2-3.2-18.4,1.2c-4.1,3.5-6.4,8-5.8,13.5c0.4,3.8,2,7.4,4.6,10.2
		c4,4.6,8.3,9.1,12.2,13.9c7.6,9.3,14.2,19.3,19.7,30c4.3,8.3,8.1,17,11.2,25.8c0.5,1.5,1.3,2.9,2.4,4c4.3,4.4,8,9.4,11.1,14.6
		c4.6,7.7,7.8,16.1,9.4,24.9c0.7,3.7,0.9,7.5,1.4,11.3c0.1,1.3,0.3,2.6,0.3,3.9c0.1,1.8-1.3,3.4-3.2,3.4c-0.4,0-0.8,0-1.2-0.2
		c-1.4-0.4-2.3-1.7-2.4-3.7c-0.2-2.5-0.4-5.1-0.7-7.6c-0.8-6.7-2.4-13.2-4.8-19.5c-3.6-9.6-9.4-18.2-16.9-25.1
		c-7.5-6.9-16.2-11.7-25.6-15.4c-8.4-3.3-17.2-5-26.2-5.3c-6.5-0.2-13,0.6-19.3,2.2c-8.6,2.2-16.8,5.7-24.3,10.5
		c-2.6,1.5-5.1,3.2-7.4,5.2c-5,4.4-6.3,10-4.6,16.3c2.2,7.8,10.4,12.8,18.8,11.6c3.4-0.6,6.6-1.9,9.5-3.9
		c10.9-7.4,24.5-9.7,37.2-6.4c10.6,2.6,19,8.4,24.7,17.8c5.3,8.5,7.1,18.8,5,28.6c-3.7,16.9-17.9,29.5-35.1,31.1
		c-8.1,0.6-16.2-1.2-23.3-5.3c-9.7-5.4-16.6-13.2-20.4-23.6c-1.1-3.6-2-7.3-2.8-11.1c-0.7-2.7-1.3-5.5-3-7.8
		c-3.7-5.4-10.1-8.4-16.6-7.7c-4,0.2-7.8,2.2-10.3,5.3c-2.3,2.8-3.5,6.4-3.5,10c0,2.5,0.2,5.1,0.4,7.6c0.7,7.7,2.3,15.4,4.8,22.8
		c5.8,17.4,16.2,33,30.2,44.9c12.3,10.9,27.9,17.4,44.4,18.6c8.5,0.6,17.1,0.2,25.5-1.3c7.4-1.3,14.7-3,21.9-5.3
		c7.3-2,14.1-5.5,20-10.2c6.6-5.5,11.7-12.6,14.9-20.6c5-12.3,8.2-25.3,9.4-38.5c0.7-6.4,1.1-12.9,1-19.4
		C225.4,231.9,225.3,229.3,225.3,226.8z"/>
</g>
</svg>
