<svg xmlns="http://www.w3.org/2000/svg" viewBox="0 0 40 40" style="enable-background:new 0 0 122 40">
<style>.st0{fill:#2E343D}</style>
<g><path class="st1" d="M24.7,0.9c-6.6,0-12.2,4.7-13.4,11.2c0.8-0.1,1.6-0.2,2.4-0.2l0,0c-0.8,0-1.6,0.1-2.4,0.2l0,0C4.8,13.3,0.1,18.9,0.1,25.5v13.5h13.6c6.5,0,12.1-4.6,13.3-11h-2.3c-0.2,0-0.5,0-0.7,0c0.2,0,0.5,0,0.7,0h13.6V14.5C38.2,7,32.2,0.9,24.7,0.9zM11.1,14.5c0,0.9,0.1,1.8,0.3,2.7C11.2,16.3,11.1,15.4,11.1,14.5L11.1,14.5z" style="fill:#135EEB"/><path class="st2" d="13.7,11.9c-0.8,0-1.6,0.1-2.4,0.2c-0.1,0.8-0.2,1.6-0.2,2.4c0,7.5,6.1,13.6,13.6,13.5c0,0,0,0,0,0H27c0.2-0.8,0.2-1.7,0.2-2.6C27.3,18,21.2,12,13.7,11.9C13.7,11.9,13.7,11.9,13.7,11.9z" style="fill:#0A60EA"/><path class="st3" d="M24.7,28.1c-7.5,0-13.6-6-13.6-13.5c0,0,0,0,0,0c0-0.8,0.1-1.6,0.2-2.4C4.8,13.3,0.1,18.9,0.1,25.5v13.5h13.6c6.5,0,12.1-4.6,13.3-11H24.7z" style="fill:#15C2FF"/><path class="st4" d="M24.7,0.9c-6.6,0-12.2,4.7-13.4,11.2c0.8-0.1,1.6-0.2,2.4-0.2c7.5,0,13.6,6,13.6,13.5c0,0.9-0.1,1.7-0.2,2.6h11.2V14.5C38.2,7,32.2,0.9,24.7,0.9z" style="fill:#2C82FF"/></g>

</svg>
