<?xml version="1.0" encoding="utf-8"?>
<!-- Generator: Adobe Illustrator 21.1.0, SVG Export Plug-In . SVG Version: 6.00 Build 0)  -->
<svg version="1.1" id="Layer_1" xmlns="http://www.w3.org/2000/svg" xmlns:xlink="http://www.w3.org/1999/xlink" x="0px" y="0px"
	 viewBox="0 0 24 24" style="enable-background:new 0 0 24 24;" xml:space="preserve">
<style type="text/css">
	.st0{fill:none;}
	.st1{fill:#000000;}
</style>
<path class="st0" d="M0,0h24v24H0V0z"/>
<path class="st1" d="M12,2l-5.5,9h11L12,2z M12,5.8L13.9,9h-3.9L12,5.8z M17.5,13C15,13,13,15,13,17.5s2,4.5,4.5,4.5s4.5-2,4.5-4.5
	S20,13,17.5,13z M17.5,20c-1.4,0-2.5-1.1-2.5-2.5s1.1-2.5,2.5-2.5s2.5,1.1,2.5,2.5S18.9,20,17.5,20z M3,21.5h8v-8H3V21.5z M5,15.5h4
	v4H5V15.5z"/>
</svg>
