<?xml version="1.0" encoding="utf-8"?>
<!-- Generator: Adobe Illustrator 21.1.0, SVG Export Plug-In . SVG Version: 6.00 Build 0)  -->
<svg version="1.1" id="Capa_1" xmlns="http://www.w3.org/2000/svg" xmlns:xlink="http://www.w3.org/1999/xlink" x="0px" y="0px"
	 viewBox="0 0 55 55" style="enable-background:new 0 0 55 55;" xml:space="preserve">
<style type="text/css">
	.st0{fill:#FFFFFF;}
</style>
<path class="st0" d="M45.3,21.9l9.7-5.5L27.5,0.8L0,16.4l9.7,5.5L0,27.4l9.7,5.5L0,38.4l27.5,15.7L55,38.4l-9.7-5.5l9.7-5.5
	L45.3,21.9z M27.5,3.1l23.4,13.3L27.5,29.8L4,16.4L27.5,3.1z M11.7,23.1l15.8,9l15.8-9l7.6,4.3L27.5,40.8L4,27.4L11.7,23.1z
	 M50.9,38.4L27.5,51.8L4,38.4l7.6-4.3l15.8,9l15.8-9L50.9,38.4z"/>
</svg>
