<?xml version="1.0" encoding="utf-8"?>
<!-- Generator: Adobe Illustrator 21.1.0, SVG Export Plug-In . SVG Version: 6.00 Build 0)  -->
<svg version="1.1" id="Layer_1" xmlns="http://www.w3.org/2000/svg" xmlns:xlink="http://www.w3.org/1999/xlink" x="0px" y="0px"
	 viewBox="0 0 24 24" style="enable-background:new 0 0 24 24;" xml:space="preserve">
<style type="text/css">
	.st0{fill:none;}
	.st1{fill:#FFFFFF;}
</style>
<path class="st0" d="M0,0h24v24H0V0z"/>
<path class="st1" d="M4.5,14.6l1.5,2.6c0.1,0.1,0.3,0.3,0.5,0.1l1.9-0.8c0.4,0.3,0.8,0.5,1.3,0.8l0.3,2.1c0,0.1,0.1,0.3,0.4,0.3h3.1
	c0.1,0,0.4-0.1,0.4-0.4l0.3-2.1c0.5-0.1,0.9-0.5,1.3-0.8l1.9,0.8c0.1,0,0.4,0,0.5-0.1l1.5-2.7c0.1-0.1,0-0.4-0.1-0.5l-1.7-1.3
	c0-0.3,0-0.5,0-0.8c0-0.3,0-0.5,0-0.8l1.7-1.3c0.1-0.1,0.1-0.4,0.1-0.5l-1.5-2.3c-0.1-0.1-0.3-0.3-0.5-0.1l-1.9,0.8
	c-0.4-0.3-0.8-0.5-1.3-0.8l-0.3-2.1c0-0.1-0.1-0.3-0.4-0.3h-3.1c-0.1,0-0.4,0.1-0.4,0.4L9.8,6.9c-0.5,0-0.9,0.3-1.3,0.5L6.6,6.6
	c-0.3,0-0.4,0-0.5,0.3L4.5,9.4c-0.1,0.1,0,0.4,0.1,0.5l1.7,1.3c0,0.3-0.1,0.5-0.1,0.8s0,0.5,0,0.8l-1.7,1.3
	C4.5,14.2,4.4,14.3,4.5,14.6z M12,9.8c1.2,0,2.2,1,2.2,2.2s-1,2.2-2.2,2.2s-2.2-1-2.2-2.2S10.8,9.8,12,9.8z"/>
</svg>
