<?xml version="1.0" encoding="utf-8"?>
<!-- Generator: Adobe Illustrator 21.1.0, SVG Export Plug-In . SVG Version: 6.00 Build 0)  -->
<svg version="1.1" id="Layer_1" xmlns="http://www.w3.org/2000/svg" xmlns:xlink="http://www.w3.org/1999/xlink" x="0px" y="0px"
	 viewBox="0 0 24 24" style="enable-background:new 0 0 24 24;" xml:space="preserve">
<style type="text/css">
	.st0{fill:none;}
	.st1{fill:#000000;}
</style>
<path class="st0" d="M0,0h24v24H0V0z"/>
<path class="st1" d="M9,12c1.9,0,3.5-1.6,3.5-3.5S10.9,5,9,5S5.5,6.6,5.5,8.5S7.1,12,9,12z M9,7c0.8,0,1.5,0.7,1.5,1.5S9.8,10,9,10
	S7.5,9.3,7.5,8.5S8.2,7,9,7z M9.1,17H4.8c1-0.5,2.7-1,4.2-1c0.1,0,0.2,0,0.3,0c0.3-0.7,0.9-1.3,1.6-1.8C10.2,14.1,9.6,14,9,14
	c-2.3,0-7,1.2-7,3.5V19h7v-1.5C9,17.3,9,17.2,9.1,17z M16.5,14.5c-1.8,0-5.5,1-5.5,3V19h11v-1.5C22,15.5,18.3,14.5,16.5,14.5z
	 M17.7,12.7c0.8-0.4,1.3-1.2,1.3-2.2C19,9.1,17.9,8,16.5,8S14,9.1,14,10.5c0,0.9,0.5,1.8,1.3,2.2c0.4,0.2,0.8,0.3,1.2,0.3
	S17.4,12.9,17.7,12.7z"/>
</svg>
