<svg xmlns="http://www.w3.org/2000/svg" width="217" height="146" viewBox="0 0 217 146">
  <g id="Group_696" data-name="Group 696" transform="translate(1364 -2247)">
    <path id="Path_498" data-name="Path 498" d="M0,0H217V146H0Z" transform="translate(-1364 2247)" fill="#fff"/>
    <text id="NO_IMAGE_TO_SHOW" data-name="NO IMAGE TO SHOW" transform="translate(-1209.119 2362.135)" fill="#b9bcc4" font-size="9" font-family="NunitoSans-ExtraBold, Nunito Sans" font-weight="800"><tspan x="-92.241" y="0">NO IMAGE TO SHOW</tspan></text>
    <g id="Group_679" data-name="Group 679" transform="translate(-1301.881 2312.019)" opacity="0.346">
      <g id="Group_217" data-name="Group 217" transform="translate(0 0)">
        <text id="CodeDesign" transform="translate(0 15)" fill="#364058" font-size="15" font-family="AvenirNext-Bold, Avenir Next" font-weight="700"><tspan x="0" y="0">CodeDesign</tspan></text>
      </g>
    </g>
    <g id="Group_680" data-name="Group 680" transform="translate(-1273.263 2274.865)">
      <path id="Path_244" data-name="Path 244" d="M171.3,50.6l-.385.385a4.453,4.453,0,0,1-6.3,0L156.74,43.1a4.453,4.453,0,0,1,0-6.3l.385-.385a4.453,4.453,0,0,1,6.3,0L171.3,44.3a4.453,4.453,0,0,1,0,6.3" transform="translate(-134.668 -35.114)" fill="#b9bcc4"/>
      <path id="Path_245" data-name="Path 245" d="M163.826,63l7.5-7.5a4.725,4.725,0,0,0,0-6.682c-.07-.07-.142-.137-.215-.2l-6.252-6.252a4.724,4.724,0,0,1,0,6.251c-.074.065-.146.132-.216.2l-7.5,7.5A4.725,4.725,0,1,0,163.826,63" transform="translate(-134.879 -39.84)" fill="#e7eaf0"/>
      <path id="Path_246" data-name="Path 246" d="M97.115,58.285,97.5,57.9a4.453,4.453,0,0,1,6.3,0l7.881,7.881a4.452,4.452,0,0,1,0,6.3l-.385.385a4.453,4.453,0,0,1-6.3,0l-7.881-7.881a4.453,4.453,0,0,1,0-6.3" transform="translate(-95.811 -49.113)" fill="#b9bcc4"/>
      <path id="Path_247" data-name="Path 247" d="M105.015,36.822l-7.5,7.5a4.725,4.725,0,0,0,0,6.683c.07.07.142.136.215.2l6.252,6.252a4.725,4.725,0,0,1,0-6.251c.073-.065.146-.131.217-.2l7.5-7.5a4.725,4.725,0,1,0-6.683-6.683" transform="translate(-96.022 -35.325)" fill="#e7eaf0"/>
    </g>
  </g>
</svg>
