<svg xmlns="http://www.w3.org/2000/svg" width="253" height="152" viewBox="0 0 253 152">
  <g id="Group_683" data-name="Group 683" transform="translate(1364 -2247)">
    <rect id="Rectangle_251" data-name="Rectangle 251" width="253" height="152" transform="translate(-1364 2247)" fill="#fff"/>
    <text id="NO_IMAGE_TO_SHOW" data-name="NO IMAGE TO SHOW" transform="translate(-1196.5 2379.445)" fill="#b9bcc4" font-size="8" font-family="NunitoSans-ExtraBold, Nunito Sans" font-weight="800"><tspan x="-81.992" y="0">NO IMAGE TO SHOW</tspan></text>
    <g id="Group_679" data-name="Group 679" transform="translate(-1285.5 2323)" opacity="0.346">
      <g id="Group_217" data-name="Group 217" transform="translate(0 0)">
        <text id="CodeDesign" transform="translate(0 16)" fill="#364058" font-size="16" font-family="AvenirNext-Bold, Avenir Next" font-weight="700"><tspan x="0" y="0">CodeDesign</tspan></text>
      </g>
    </g>
    <g id="Group_680" data-name="Group 680" transform="translate(-1259.646 2280.069)">
      <path id="Path_244" data-name="Path 244" d="M173.96,53.189l-.45.45a5.2,5.2,0,0,1-7.352,0l-9.2-9.2a5.2,5.2,0,0,1,0-7.352l.449-.449a5.2,5.2,0,0,1,7.352,0l9.2,9.2a5.2,5.2,0,0,1,0,7.352" transform="translate(-131.191 -35.114)" fill="#b9bcc4"/>
      <path id="Path_245" data-name="Path 245" d="M165.176,66.452l8.751-8.751a5.516,5.516,0,0,0,0-7.8c-.082-.082-.166-.159-.251-.235l-7.3-7.3a5.515,5.515,0,0,1,0,7.3c-.086.076-.171.154-.253.236l-8.751,8.751a5.516,5.516,0,0,0,7.8,7.8" transform="translate(-131.383 -39.417)" fill="#e7eaf0"/>
      <path id="Path_246" data-name="Path 246" d="M97.333,58.568l.45-.45a5.2,5.2,0,0,1,7.352,0l9.2,9.2a5.2,5.2,0,0,1,0,7.351l-.449.45a5.2,5.2,0,0,1-7.352,0l-9.2-9.2a5.2,5.2,0,0,1,0-7.351" transform="translate(-95.811 -47.861)" fill="#b9bcc4"/>
      <path id="Path_247" data-name="Path 247" d="M106.5,37.054,97.75,45.8a5.516,5.516,0,0,0,0,7.8c.082.081.166.159.251.235l7.3,7.3a5.516,5.516,0,0,1,0-7.3c.086-.076.171-.153.253-.235l8.751-8.751a5.516,5.516,0,0,0-7.8-7.8" transform="translate(-96.003 -35.306)" fill="#e7eaf0"/>
    </g>
  </g>
</svg>
