<?xml version="1.0" encoding="utf-8"?>
<!-- Generator: Adobe Illustrator 23.0.1, SVG Export Plug-In . SVG Version: 6.00 Build 0)  -->
<svg version="1.1" id="Capa_1" xmlns="http://www.w3.org/2000/svg" xmlns:xlink="http://www.w3.org/1999/xlink" x="0px" y="0px"
	 viewBox="0 0 512 512" style="enable-background:new 0 0 512 512;" xml:space="preserve">
<style type="text/css">
	.st0{display:none;}
	.st1{display:inline;}
</style>
<g class="st0">
	<g class="st1">
		<g>
			<path d="M405.3,245.3c0,0-42.7,46.2-42.7,74.7c0,23.6,19.1,42.7,42.7,42.7S448,343.6,448,320C448,291.5,405.3,245.3,405.3,245.3z
				"/>
			<path d="M162.6,0l-30.2,30.2L183.1,81L73.4,190.7c-12.5,12.5-12.5,32.7,0,45.2l117.3,117.3c6.2,6.3,14.4,9.4,22.6,9.4
				s16.4-3.1,22.6-9.4l117.3-117.3c12.5-12.5,12.5-32.7,0-45.2L162.6,0z M111,213.3l102.3-102.2l102.3,102.2H111z"/>
		</g>
	</g>
</g>
<g class="st0">
	<path class="st1" d="M227,54.9H90.4v-53h332.2v53H286.1v317.9H227V54.9z"/>
</g>
<path d="M139.8,409.5h232.6l41.8,102.4H512L291.1,0.1h-69.7L0.1,511.9h97.8L139.8,409.5z M256.1,92.2l87.1,233.6H169.1L256.1,92.2z"
	/>
</svg>
