<svg xmlns="http://www.w3.org/2000/svg" width="22" height="22" viewBox="0 0 22 22"><defs><style>.a,.b{fill:none;}.b{stroke:#fff;stroke-linecap:round;stroke-linejoin:round;stroke-width:1.5px;}</style></defs><path class="a" d="M0,0H22V22H0Z"/><path class="b" d="M17,11.833a1.833,1.833,0,0,1,3.667,0,3.322,3.322,0,0,1-.748,1.7L17,17.334h3.667" transform="translate(-1.417 -0.833)"/><path class="b" d="M4,6V17" transform="translate(-0.333 -0.5)"/><path class="b" d="M12,6V17" transform="translate(-1 -0.5)"/><path class="b" d="M11,18h1.833" transform="translate(-0.917 -1.5)"/><path class="b" d="M3,18H4.833" transform="translate(-0.25 -1.5)"/><path class="b" d="M4,12h7.333" transform="translate(-0.333 -1)"/><path class="b" d="M3,6H4.833" transform="translate(-0.25 -0.5)"/><path class="b" d="M11,6h1.833" transform="translate(-0.917 -0.5)"/></svg>