<svg xmlns="http://www.w3.org/2000/svg" width="20" height="20" viewBox="0 0 20 20"><defs><style>.a,.b{fill:none;}.b{stroke:#fff;stroke-linecap:round;stroke-linejoin:round;stroke-width:1.5px;}</style></defs><path class="a" d="M0,0H20V20H0Z"/><path class="b" d="M18.667,13.333A1.667,1.667,0,1,0,17,11.667" transform="translate(-2.833 -1.667)"/><path class="b" d="M17,15.667A1.667,1.667,0,1,0,18.667,14" transform="translate(-2.833 -2.333)"/><path class="b" d="M4,6V16" transform="translate(-0.667 -1)"/><path class="b" d="M12,6V16" transform="translate(-2 -1)"/><path class="b" d="M11,18h1.667" transform="translate(-1.833 -3)"/><path class="b" d="M3,18H4.667" transform="translate(-0.5 -3)"/><path class="b" d="M4,12h6.667" transform="translate(-0.667 -2)"/><path class="b" d="M3,6H4.667" transform="translate(-0.5 -1)"/><path class="b" d="M11,6h1.667" transform="translate(-1.833 -1)"/></svg>