<svg xmlns="http://www.w3.org/2000/svg" width="14" height="14" viewBox="0 0 14 14"><defs><style>.a,.b{fill:none;}.b{stroke:#fff;stroke-linecap:round;stroke-linejoin:round;stroke-width:1.5px;}</style></defs><path class="a" d="M0,0H14V14H0Z"/><circle class="b" cx="1.167" cy="1.167" r="1.167" transform="translate(12.25 10.5) rotate(180)"/><path class="b" d="M19.333,11.167a1.167,1.167,0,0,0-2.333,0V13.5" transform="translate(-7.083 -4.167)"/><path class="b" d="M4,6v7" transform="translate(-1.667 -2.5)"/><path class="b" d="M12,6v7" transform="translate(-5 -2.5)"/><path class="b" d="M11,18h1.167" transform="translate(-4.583 -7.5)"/><path class="b" d="M3,18H4.167" transform="translate(-1.25 -7.5)"/><path class="b" d="M4,12H8.667" transform="translate(-1.667 -5)"/><path class="b" d="M3,6H4.167" transform="translate(-1.25 -2.5)"/><path class="b" d="M11,6h1.167" transform="translate(-4.583 -2.5)"/></svg>