<svg xmlns="http://www.w3.org/2000/svg" width="13.5" height="13.503" viewBox="0 0 13.5 13.503">
  <path id="Icon_ionic-ios-settings" data-name="Icon ionic-ios-settings" d="M16.886,11.25A1.737,1.737,0,0,1,18,9.629a6.886,6.886,0,0,0-.833-2.007,1.76,1.76,0,0,1-.707.151,1.733,1.733,0,0,1-1.586-2.44,6.865,6.865,0,0,0-2-.833,1.736,1.736,0,0,1-3.241,0,6.886,6.886,0,0,0-2.007.833,1.733,1.733,0,0,1-1.586,2.44,1.7,1.7,0,0,1-.707-.151A7.038,7.038,0,0,0,4.5,9.633a1.737,1.737,0,0,1,0,3.241,6.886,6.886,0,0,0,.833,2.007A1.734,1.734,0,0,1,7.625,17.17,6.926,6.926,0,0,0,9.633,18a1.733,1.733,0,0,1,3.234,0,6.886,6.886,0,0,0,2.007-.833,1.736,1.736,0,0,1,2.289-2.289A6.926,6.926,0,0,0,18,12.874,1.745,1.745,0,0,1,16.886,11.25Zm-5.6,2.809a2.812,2.812,0,1,1,2.812-2.812A2.812,2.812,0,0,1,11.282,14.059Z" transform="translate(-4.5 -4.5)" fill="#e7eaf0"/>
</svg>
