<svg id="Component_23_1" data-name="Component 23 – 1" xmlns="http://www.w3.org/2000/svg" width="28.993" height="18.841" viewBox="0 0 28.993 18.841">
  <g id="Group_835" data-name="Group 835" opacity="0.501">
    <g id="Group_210" data-name="Group 210" transform="translate(15.871)">
      <path id="Path_244" data-name="Path 244" d="M167.562,46.946l-.294.294a3.4,3.4,0,0,1-4.812,0l-6.023-6.023a3.4,3.4,0,0,1,0-4.812l.294-.294a3.4,3.4,0,0,1,4.813,0l6.023,6.023a3.4,3.4,0,0,1,0,4.812" transform="translate(-155.436 -35.114)" fill="#e7eaf0"/>
      <path id="Path_245" data-name="Path 245" d="M161.924,58.133l5.729-5.729a3.611,3.611,0,0,0,0-5.107c-.053-.054-.109-.1-.164-.154l-4.778-4.778a3.61,3.61,0,0,1,0,4.777c-.056.05-.112.1-.165.154l-5.729,5.729a3.611,3.611,0,1,0,5.107,5.107" transform="translate(-155.673 -40.436)" fill="#fff"/>
    </g>
    <g id="Group_211" data-name="Group 211" transform="translate(0 0.086)">
      <path id="Path_246" data-name="Path 246" d="M96.808,57.886l.294-.294a3.4,3.4,0,0,1,4.812,0l6.023,6.023a3.4,3.4,0,0,1,0,4.812l-.294.294a3.4,3.4,0,0,1-4.812,0L96.808,62.7a3.4,3.4,0,0,1,0-4.812" transform="translate(-95.811 -50.964)" fill="#e7eaf0"/>
      <path id="Path_247" data-name="Path 247" d="M102.921,36.5l-5.729,5.729a3.611,3.611,0,0,0,0,5.107c.053.053.109.1.164.154l4.778,4.778a3.611,3.611,0,0,1,0-4.777c.056-.05.112-.1.166-.154l5.729-5.729a3.611,3.611,0,1,0-5.107-5.107" transform="translate(-96.048 -35.438)" fill="#fff"/>
    </g>
  </g>
</svg>
