<svg xmlns="http://www.w3.org/2000/svg" width="16" height="16" viewBox="0 0 16 16"><defs><style>.a{fill:#fff;}</style></defs><g transform="translate(0.001 -0.002)"><g transform="translate(-0.001 0.002)"><path class="a" d="M15.9,7.756,13.81,5.669a.348.348,0,0,0-.594.246V6.959H9.042V2.785h1.043a.348.348,0,0,0,.246-.594L8.245.1a.348.348,0,0,0-.492,0L5.667,2.191a.348.348,0,0,0,.246.594H6.956V6.959H2.782V5.915a.348.348,0,0,0-.594-.246L.1,7.756a.348.348,0,0,0,0,.492l2.087,2.087a.348.348,0,0,0,.594-.246V9.045H6.956v4.174H5.912a.348.348,0,0,0-.246.594L7.753,15.9a.349.349,0,0,0,.493,0l2.087-2.087a.348.348,0,0,0-.246-.594H9.042V9.045h4.174v1.043a.348.348,0,0,0,.594.246L15.9,8.248A.349.349,0,0,0,15.9,7.756Z" transform="translate(0.001 -0.002)"/></g></g></svg>