<svg id="Logo" xmlns="http://www.w3.org/2000/svg" width="204.952" height="47.348" viewBox="0 0 204.952 47.348">
  <defs>
    <style>
      .cls-1, .cls-2 {
        fill: #51525f;
      }

      .cls-2 {
        stroke: #000;
        stroke-miterlimit: 10;
        stroke-width: 2px;
      }
    </style>
  </defs>
  <g id="Group_4" data-name="Group 4">
    <g id="Group_2" data-name="Group 2" transform="translate(0.232 0.266)">
      <path id="Path_1" data-name="Path 1" class="cls-1" d="M18.833,32.1c2.47-1.859,2.709-4.3.478-6.187-1.912-1.62-7.276-3.293-7.621-3.372a12.52,12.52,0,0,1-5.975-3.9,12.046,12.046,0,0,1-2.071-3.744l-.212-.929c-.478-1.514.053-5.045.053-5.045a5.463,5.463,0,0,1,.531-1.567A9.829,9.829,0,0,1,7.786,2.779,9.277,9.277,0,0,1,9.857,1.611a5.2,5.2,0,0,1,1.939-.5C15.54,1.053,46.45,1,47.512,1h0A2.318,2.318,0,0,1,47.7,2.195c0,1.912-.053,3.85.027,5.762.053.956-.266,1.168-1.168,1.168q-16.77-.04-33.512,0l-1.089.345c-1.354.744-1.328,3.532.133,4.647a8.127,8.127,0,0,0,2.576,1.3c.9.292,1.806.5,2.709.8a25.056,25.056,0,0,1,7.037,3.8c.159.186.319.372.5.558a12.144,12.144,0,0,1,3.4,5.789c.027.319.08.611.106.929a11.037,11.037,0,0,1-3.213,9.268l-.451.531A10.784,10.784,0,0,1,17.691,40.2a21.411,21.411,0,0,1-9.825-1.487,20.189,20.189,0,0,1-2.018-.983.1.1,0,0,0-.027-.08c-.027,0-.027.027-.053.027a32.5,32.5,0,0,1-4.541-3.532c-.372-.345-.558-.637,0-1.115,1.514-1.328,3-2.682,4.408-4.116.531-.531.85-.558,1.3-.08a.458.458,0,0,1,.159.159,12.561,12.561,0,0,0,7.329,3.532c.637.027,1.275.027,1.912.053a4.545,4.545,0,0,0,2.363-.451Z" transform="translate(-0.875 -1)"/>
    </g>
    <g id="Group_3" data-name="Group 3">
      <path id="Path_2" data-name="Path 2" class="cls-1" d="M15.322,39.833A22.043,22.043,0,0,1,7.17,38.239a14.664,14.664,0,0,1-1.461-.69,5.992,5.992,0,0,0-.584-.292A.026.026,0,0,1,5.1,37.23a.093.093,0,0,1-.053-.027A32.2,32.2,0,0,1,.478,33.619.937.937,0,0,1,0,32.875a1.091,1.091,0,0,1,.451-.744C2.1,30.7,3.532,29.37,4.86,28.016a1.356,1.356,0,0,1,.9-.5h0a1.119,1.119,0,0,1,.77.425,1.227,1.227,0,0,1,.186.186,12.207,12.207,0,0,0,7.143,3.452h.69c.4,0,.823,0,1.222.027a3.738,3.738,0,0,0,2.2-.425l.106-.053a4.062,4.062,0,0,0,1.885-3,3.566,3.566,0,0,0-1.434-2.735c-1.832-1.567-7.117-3.213-7.542-3.319a12.94,12.94,0,0,1-6.108-3.983A9.505,9.505,0,0,1,3.107,15c-.106-.266-.212-.5-.319-.744,0-.027,0-.027-.027-.053l-.212-.929C2.124,11.9,2.5,9,2.6,8.152V8.126A6.328,6.328,0,0,1,3.16,6.479a9.982,9.982,0,0,1,3.85-4.674A9.4,9.4,0,0,1,9.161.611h.027A.026.026,0,0,0,9.215.584,4.979,4.979,0,0,1,11.18.08C13.6.053,27.086.027,36.965,0H46.87a.377.377,0,0,1,.159.053c.027,0,.027.027.053.027l.053.053a1.957,1.957,0,0,1,.212,1.195V3.213c0,1.3-.027,2.656.027,3.983a1.377,1.377,0,0,1-.292,1.115,1.535,1.535,0,0,1-1.168.319C34.442,8.6,23.05,8.6,12.454,8.63l-1.036.345a1.907,1.907,0,0,0-.823,1.567A3.1,3.1,0,0,0,11.6,13.171a7.85,7.85,0,0,0,2.5,1.248c.4.133.823.239,1.248.372.478.133.983.266,1.461.451a25.326,25.326,0,0,1,7.117,3.85c.027,0,.027.027.053.027l.133.133c.133.133.239.266.372.4a12.527,12.527,0,0,1,3.479,5.9v.027c.027.159.027.319.053.451a2.926,2.926,0,0,1,.053.478,11.311,11.311,0,0,1-3.293,9.48l-.451.5-.027.027A11.2,11.2,0,0,1,17.075,39.7,9.742,9.742,0,0,1,15.322,39.833Zm-9.878-3,.478.239a13.609,13.609,0,0,0,1.407.664A21.262,21.262,0,0,0,17.048,39.2a10.654,10.654,0,0,0,6.9-3.054l.451-.5a10.877,10.877,0,0,0,3.16-9.082c-.027-.159-.027-.319-.053-.478s-.027-.292-.053-.451A12.067,12.067,0,0,0,24.139,20c-.133-.133-.266-.292-.4-.425l-.106-.106A25.028,25.028,0,0,0,16.7,15.721c-.478-.159-.983-.292-1.461-.425-.425-.106-.85-.239-1.275-.372a8.205,8.205,0,0,1-2.682-1.354,3.587,3.587,0,0,1-1.222-3.08A2.432,2.432,0,0,1,11.18,8.471c.027,0,.027-.027.053-.027L12.322,8.1h.08c10.622-.027,22.014-.027,33.512,0,.425,0,.664-.053.77-.159a.969.969,0,0,0,.133-.717c-.053-1.328-.053-2.709-.027-4.01V1.328a2.538,2.538,0,0,0-.08-.8c-.876,0-4.86,0-9.746.027C27.113.584,13.6.611,11.206.637a4.6,4.6,0,0,0-1.753.451c-.053.027-.08.053-.133.053A9.422,9.422,0,0,0,7.3,2.257,9.452,9.452,0,0,0,3.638,6.692a5.683,5.683,0,0,0-.531,1.514h0v.027c-.08.584-.478,3.585-.053,4.913l.212.929c.106.239.212.5.319.744a9.4,9.4,0,0,0,1.673,2.921A12.127,12.127,0,0,0,11.1,21.563c.531.106,5.842,1.779,7.754,3.4a4.047,4.047,0,0,1,1.62,3.16,4.52,4.52,0,0,1-2.124,3.426l-.027.027-.133.08a4.53,4.53,0,0,1-2.5.478c-.4-.027-.8-.027-1.222-.027h-.717a12.65,12.65,0,0,1-7.489-3.611l-.027-.027-.106-.106-.027-.027c-.159-.186-.292-.266-.4-.266a.87.87,0,0,0-.5.345C3.877,29.768,2.443,31.123.77,32.556.611,32.689.5,32.822.5,32.9c0,.106.133.239.266.372a31.118,31.118,0,0,0,4.382,3.452h.08A.237.237,0,0,1,5.444,36.832Zm12.746-5.47Z"/>
    </g>
  </g>
  <g id="Group_7" data-name="Group 7" transform="translate(25.855 30.591)">
    <g id="Group_5" data-name="Group 5" transform="translate(0.275 0.212)">
      <path id="Path_3" data-name="Path 3" class="cls-1" d="M119.352,116.664c0,2.363-.027,4.727-.027,7.064h-4.541s-12.587.027-12.587,0H98.4a10.978,10.978,0,0,0,.956-.77,11.316,11.316,0,0,0,2.815-5.789c.027-.106.027-.212.053-.345a.924.924,0,0,1,.85-.77c.5.106,15.349-.053,16.092-.053A.694.694,0,0,1,119.352,116.664Z" transform="translate(-98.4 -116)"/>
    </g>
    <g id="Group_6" data-name="Group 6">
      <path id="Path_4" data-name="Path 4" class="cls-1" d="M98.914,123.432H97.639a.32.32,0,0,1-.266-.186.252.252,0,0,1,.106-.292,8.639,8.639,0,0,0,.929-.744,10.817,10.817,0,0,0,2.735-5.63,1.293,1.293,0,0,0,.027-.319v-.027a1.242,1.242,0,0,1,1.062-.983h.106c.478.08,10.463,0,14.207-.027,1.009,0,1.673-.027,1.832-.027a.2.2,0,0,1,.133.027.767.767,0,0,1,.345.823l-.266.027h.266c0,2.363-.027,4.727-.027,7.064a.286.286,0,0,1-.266.266H103.375c-1.275,0-1.753,0-1.965-.027A19.969,19.969,0,0,1,98.914,123.432Zm2.523-.266Zm-3.027-.266h19.916c.027-2.284.027-4.541.027-6.8h0v-.027c0-.186,0-.266-.053-.292-.239,0-.876,0-1.726.027-9.454.08-13.649.08-14.26.027a.642.642,0,0,0-.584.558,1.333,1.333,0,0,1-.053.319,11.334,11.334,0,0,1-2.895,5.922A1.667,1.667,0,0,0,98.409,122.9Z" transform="translate(-97.364 -115.2)"/>
    </g>
  </g>
  <g id="Group_9" data-name="Group 9" transform="translate(26.847 18.721)">
    <g id="Group_8" data-name="Group 8">
      <path id="Path_5" data-name="Path 5" class="cls-2" d="M101.1,70.5" transform="translate(-101.1 -70.5)"/>
    </g>
  </g>
  <g id="Group_12" data-name="Group 12" transform="translate(25.413 17.739)">
    <g id="Group_10" data-name="Group 10" transform="translate(0.319 0.266)">
      <path id="Path_6" data-name="Path 6" class="cls-1" d="M131.714,87.4a4.626,4.626,0,0,1-2.124,1.673,7.4,7.4,0,0,1-2.39.4,6.646,6.646,0,0,1-2.549-.531,8.275,8.275,0,0,1-2.31-1.514,8.5,8.5,0,0,1-1.726-2.257,7.882,7.882,0,0,1-.85-2.815V73.775H118.3c-3.638,0-12.985-.027-15.614.027-.823,0-1.222-.159-1.328-.584-.053-.319-2.231-4.86-4.461-5.417l21.4.08,9.8.027v5.869h-3.4V81.21a2.721,2.721,0,0,0,.159.983,1.95,1.95,0,0,0,.451.717,2.143,2.143,0,0,0,.637.451,1.782,1.782,0,0,0,.744.159,4.6,4.6,0,0,0,.85-.08,1.688,1.688,0,0,0,.9-.584Z" transform="translate(-96.9 -67.8)"/>
    </g>
    <g id="Group_11" data-name="Group 11">
      <path id="Path_7" data-name="Path 7" class="cls-1" d="M126.318,89a6.619,6.619,0,0,1-2.656-.558,8.269,8.269,0,0,1-2.39-1.567,9.078,9.078,0,0,1-1.779-2.337,7.937,7.937,0,0,1-.876-2.921V73.306H117.4c-3.558,0-12.985-.027-15.614.027-.664,0-1.434-.08-1.593-.8-.133-.478-2.231-4.7-4.275-5.2a.288.288,0,0,1-.212-.292.282.282,0,0,1,.266-.239h0l31.2.106a.251.251,0,0,1,.266.266V73.04a.251.251,0,0,1-.266.266h-3.134v7.17a2.382,2.382,0,0,0,.159.9,2.586,2.586,0,0,0,.4.637,2.127,2.127,0,0,0,.558.4,2.39,2.39,0,0,0,1.434.053,1.654,1.654,0,0,0,.77-.5.3.3,0,0,1,.212-.08.224.224,0,0,1,.186.106l3.266,4.541a.242.242,0,0,1,0,.319,4.9,4.9,0,0,1-2.231,1.753A7.88,7.88,0,0,1,126.318,89Zm-7.2-7.409a7.464,7.464,0,0,0,.823,2.709,8.63,8.63,0,0,0,1.673,2.2,8.09,8.09,0,0,0,2.231,1.461,6.6,6.6,0,0,0,4.78.133,4.4,4.4,0,0,0,1.885-1.407l-3-4.169a1.825,1.825,0,0,1-.823.451,3.019,3.019,0,0,1-1.753-.08,2.452,2.452,0,0,1-.744-.5,2.537,2.537,0,0,1-.5-.823,2.841,2.841,0,0,1-.186-1.089V73.04a.251.251,0,0,1,.266-.266H126.9V67.411l-29.795-.08a13.568,13.568,0,0,1,3.585,5.1c.027.133.08.372,1.062.372,2.629-.027,12.056-.027,15.614-.027h1.487a.251.251,0,0,1,.266.266Z" transform="translate(-95.7 -66.8)"/>
    </g>
  </g>
  <g id="Group_13" data-name="Group 13" transform="translate(61.475 18.934)">
    <path id="Path_8" data-name="Path 8" class="cls-1" d="M237.838,91.779a9.87,9.87,0,0,1-3.93-3.665A10,10,0,0,1,232.5,82.8a10.106,10.106,0,0,1,1.407-5.311,9.87,9.87,0,0,1,3.93-3.665,12.768,12.768,0,0,1,11.339,0,9.629,9.629,0,0,1,3.9,3.665,10,10,0,0,1,1.407,5.311,10.106,10.106,0,0,1-1.407,5.311,9.974,9.974,0,0,1-3.9,3.665,12.011,12.011,0,0,1-5.656,1.328A11.735,11.735,0,0,1,237.838,91.779Zm9.347-4.939a6.4,6.4,0,0,0,0-8.073,4.826,4.826,0,0,0-3.665-1.514,4.925,4.925,0,0,0-3.691,1.514,5.657,5.657,0,0,0-1.461,4.036,5.5,5.5,0,0,0,1.461,4.036,4.885,4.885,0,0,0,3.691,1.514A4.826,4.826,0,0,0,247.185,86.84Z" transform="translate(-232.234 -72.181)"/>
    <path id="Path_9" data-name="Path 9" class="cls-1" d="M242.786,92.491A12.173,12.173,0,0,1,237,91.137h0a10.238,10.238,0,0,1-4.036-3.771A10.463,10.463,0,0,1,231.5,81.9a10.286,10.286,0,0,1,1.461-5.47A10.064,10.064,0,0,1,237,72.654a13.05,13.05,0,0,1,11.578,0,10.165,10.165,0,0,1,4.01,3.771,10.463,10.463,0,0,1,1.461,5.47,10.352,10.352,0,0,1-1.461,5.47,10.165,10.165,0,0,1-4.01,3.771A12.248,12.248,0,0,1,242.786,92.491Zm0-20.607a11.569,11.569,0,0,0-5.55,1.3,9.515,9.515,0,0,0-3.824,3.558,10,10,0,0,0-1.381,5.178,9.686,9.686,0,0,0,1.381,5.178,9.515,9.515,0,0,0,3.824,3.558h0a11.883,11.883,0,0,0,5.55,1.3,11.391,11.391,0,0,0,5.523-1.3,9.443,9.443,0,0,0,3.8-3.558,10,10,0,0,0,1.381-5.178,9.6,9.6,0,0,0-5.178-8.737A11.464,11.464,0,0,0,242.786,71.884Zm0,15.853a5.125,5.125,0,0,1-3.877-1.593,6.646,6.646,0,0,1,0-8.444,5.125,5.125,0,0,1,3.877-1.593,5.027,5.027,0,0,1,3.85,1.593,6.646,6.646,0,0,1,0,8.444h0A5.108,5.108,0,0,1,242.786,87.738Zm0-11.1a4.685,4.685,0,0,0-3.505,1.434,5.423,5.423,0,0,0-1.381,3.85,5.308,5.308,0,0,0,1.381,3.85,4.644,4.644,0,0,0,3.505,1.434,4.586,4.586,0,0,0,3.479-1.434,6.151,6.151,0,0,0,0-7.7A4.586,4.586,0,0,0,242.786,76.638Zm3.665,9.321Z" transform="translate(-231.5 -71.3)"/>
  </g>
  <g id="Group_14" data-name="Group 14" transform="translate(87.605 18.96)">
    <path id="Path_10" data-name="Path 10" class="cls-1" d="M339.338,73.244a10.311,10.311,0,0,1,4.089-.744v5.364c-.637-.053-1.089-.08-1.3-.08a5.284,5.284,0,0,0-3.9,1.407,5.609,5.609,0,0,0-1.407,4.2v9.427H331V72.792h5.55v2.656A5.94,5.94,0,0,1,339.338,73.244Z" transform="translate(-330.708 -72.208)"/>
    <path id="Path_11" data-name="Path 11" class="cls-1" d="M335.981,92.272h-5.816a.251.251,0,0,1-.266-.266V71.984a.251.251,0,0,1,.266-.266h5.55a.251.251,0,0,1,.266.266V73.87a7.334,7.334,0,0,1,2.443-1.7h0a10.71,10.71,0,0,1,4.169-.77.251.251,0,0,1,.266.266V77.03a.241.241,0,0,1-.08.186.3.3,0,0,1-.212.08q-.956-.08-1.275-.08a5.048,5.048,0,0,0-3.718,1.328,5.487,5.487,0,0,0-1.328,4.01v9.454A.266.266,0,0,1,335.981,92.272Zm-5.55-.531h5.284V82.553a5.95,5.95,0,0,1,1.487-4.382,5.548,5.548,0,0,1,4.089-1.461c.186,0,.531.027,1.036.053V71.958a10.185,10.185,0,0,0-3.718.717h0a6.5,6.5,0,0,0-2.709,2.1.261.261,0,0,1-.478-.159v-2.39H330.4V91.741Z" transform="translate(-329.9 -71.4)"/>
  </g>
  <g id="Group_15" data-name="Group 15" transform="translate(101.413 19.279)">
    <path id="Path_12" data-name="Path 12" class="cls-1" d="M405.917,73.6l-9.055,21.244a10.613,10.613,0,0,1-3.4,4.886,8.221,8.221,0,0,1-4.886,1.407,10.214,10.214,0,0,1-3.08-.478,6.961,6.961,0,0,1-2.5-1.328l2.124-4.143a4.779,4.779,0,0,0,1.54.929,5.119,5.119,0,0,0,1.726.345,3.011,3.011,0,0,0,1.939-.584,4.756,4.756,0,0,0,1.328-1.912l.08-.186L383.053,73.6h6l5.63,13.6,5.656-13.6h5.577Z" transform="translate(-382.707 -73.334)"/>
    <path id="Path_13" data-name="Path 13" class="cls-1" d="M387.739,100.669a9.956,9.956,0,0,1-3.16-.5,7.4,7.4,0,0,1-2.6-1.407.282.282,0,0,1-.053-.319l2.124-4.143a.2.2,0,0,1,.186-.133.207.207,0,0,1,.212.053,4.756,4.756,0,0,0,1.461.876,4.532,4.532,0,0,0,1.646.319,2.891,2.891,0,0,0,1.779-.531,4.553,4.553,0,0,0,1.248-1.806l.027-.08L382,72.972a.25.25,0,0,1,.027-.239.271.271,0,0,1,.212-.133h6a.232.232,0,0,1,.239.159l5.364,12.985,5.417-12.985a.255.255,0,0,1,.239-.159h5.577a.328.328,0,0,1,.212.106.258.258,0,0,1,.027.239l-9.055,21.244a10.719,10.719,0,0,1-3.505,4.992A8.2,8.2,0,0,1,387.739,100.669Zm-5.258-2.151a6.542,6.542,0,0,0,2.231,1.142,9.711,9.711,0,0,0,3,.478,8.151,8.151,0,0,0,4.753-1.354,10.391,10.391,0,0,0,3.319-4.753l8.9-20.9h-4.992l-5.6,13.437a.255.255,0,0,1-.239.159h0a.232.232,0,0,1-.239-.159l-5.55-13.437h-5.417l8.524,19.81a.291.291,0,0,1,0,.212l-.08.186a5.194,5.194,0,0,1-1.434,2.018,3.292,3.292,0,0,1-2.1.637,4.976,4.976,0,0,1-1.832-.345,4.848,4.848,0,0,1-1.354-.77Z" transform="translate(-381.896 -72.6)"/>
  </g>
  <g id="Group_16" data-name="Group 16" transform="translate(126.986 11.684)">
    <path id="Path_14" data-name="Path 14" class="cls-1" d="M479.2,45h5.816V72.617H479.2Z" transform="translate(-478.934 -44.734)"/>
    <path id="Path_15" data-name="Path 15" class="cls-1" d="M484.281,72.148h-5.816a.251.251,0,0,1-.266-.266V44.266a.251.251,0,0,1,.266-.266h5.816a.251.251,0,0,1,.266.266V71.883A.266.266,0,0,1,484.281,72.148Zm-5.55-.531h5.284V44.531h-5.284Z" transform="translate(-478.2 -44)"/>
  </g>
  <g id="Group_17" data-name="Group 17" transform="translate(136.971 18.96)">
    <path id="Path_16" data-name="Path 16" class="cls-1" d="M537.705,84.45H522.542a4.715,4.715,0,0,0,1.939,2.948,6.418,6.418,0,0,0,3.8,1.089,7.431,7.431,0,0,0,2.762-.478,6.993,6.993,0,0,0,2.257-1.461l3.08,3.346c-1.885,2.151-4.647,3.24-8.259,3.24a13.219,13.219,0,0,1-6-1.328,9.587,9.587,0,0,1-4.01-3.665A10,10,0,0,1,516.7,82.83a10.31,10.31,0,0,1,1.407-5.311,9.828,9.828,0,0,1,3.824-3.691,11.312,11.312,0,0,1,5.444-1.328,10.983,10.983,0,0,1,5.311,1.275,9.146,9.146,0,0,1,3.744,3.638,10.816,10.816,0,0,1,1.354,5.5A7.458,7.458,0,0,1,537.705,84.45ZM524.135,78a4.757,4.757,0,0,0-1.646,3.054h9.878a4.642,4.642,0,0,0-1.646-3.027,4.855,4.855,0,0,0-3.266-1.142A4.968,4.968,0,0,0,524.135,78Z" transform="translate(-516.461 -72.208)"/>
    <path id="Path_17" data-name="Path 17" class="cls-1" d="M527.484,92.564a13.261,13.261,0,0,1-6.108-1.354,9.948,9.948,0,0,1-4.116-3.771,11.012,11.012,0,0,1-.027-10.914,9.938,9.938,0,0,1,3.93-3.771,11.478,11.478,0,0,1,5.577-1.354,11.3,11.3,0,0,1,5.444,1.3,9.669,9.669,0,0,1,3.851,3.744,11.128,11.128,0,0,1,1.381,5.63c0,.053,0,.292-.106,1.593a.262.262,0,0,1-.266.239H522.226a4.55,4.55,0,0,0,1.753,2.47,6.132,6.132,0,0,0,3.638,1.036,7.565,7.565,0,0,0,2.682-.451,6.407,6.407,0,0,0,2.151-1.407.257.257,0,0,1,.372,0L535.9,88.9a.248.248,0,0,1,0,.345C534.017,91.449,531.175,92.564,527.484,92.564Zm-.744-20.607a10.881,10.881,0,0,0-5.338,1.3,9.718,9.718,0,0,0-3.744,3.585,10.048,10.048,0,0,0-1.354,5.178,9.686,9.686,0,0,0,1.381,5.178,9.4,9.4,0,0,0,3.9,3.558,12.987,12.987,0,0,0,5.869,1.3c3.426,0,6.081-1.009,7.913-2.974l-2.735-2.974a6.659,6.659,0,0,1-2.151,1.354,8.017,8.017,0,0,1-2.868.478,6.75,6.75,0,0,1-3.957-1.115,5.032,5.032,0,0,1-2.045-3.107.207.207,0,0,1,.053-.212.328.328,0,0,1,.212-.106h14.9c.08-1.036.08-1.248.08-1.3a10.711,10.711,0,0,0-1.328-5.364,9.126,9.126,0,0,0-3.638-3.532A10.28,10.28,0,0,0,526.741,71.958Zm4.966,8.551h-9.878a.3.3,0,0,1-.212-.08.206.206,0,0,1-.053-.212A5.048,5.048,0,0,1,523.289,77h0a5.294,5.294,0,0,1,3.479-1.168,5.2,5.2,0,0,1,3.452,1.195,5.118,5.118,0,0,1,1.726,3.187.237.237,0,0,1-.239.292Zm-9.56-.531h9.241A4.449,4.449,0,0,0,529.9,77.4a5.114,5.114,0,0,0-6.24,0A4.272,4.272,0,0,0,522.147,79.977Z" transform="translate(-515.8 -71.4)"/>
  </g>
  <g id="Group_18" data-name="Group 18" transform="translate(162.172 18.96)">
    <path id="Path_18" data-name="Path 18" class="cls-1" d="M629.917,74.657c1.514,1.487,2.284,3.691,2.284,6.639V92.741h-5.816V82.172a5.271,5.271,0,0,0-1.036-3.558,3.862,3.862,0,0,0-3.027-1.168,4.661,4.661,0,0,0-3.505,1.354,5.592,5.592,0,0,0-1.3,4.036v9.905H611.7V72.719h5.55v2.337a7.889,7.889,0,0,1,2.868-1.965,10.139,10.139,0,0,1,3.771-.69A8.37,8.37,0,0,1,629.917,74.657Z" transform="translate(-611.434 -72.134)"/>
    <path id="Path_19" data-name="Path 19" class="cls-1" d="M631.466,92.272H625.65a.251.251,0,0,1-.266-.266V81.438a4.874,4.874,0,0,0-.983-3.372,3.6,3.6,0,0,0-2.815-1.089,4.421,4.421,0,0,0-3.319,1.275,5.365,5.365,0,0,0-1.222,3.85v9.905a.251.251,0,0,1-.266.266h-5.816a.251.251,0,0,1-.266-.266V71.984a.251.251,0,0,1,.266-.266h5.55a.251.251,0,0,1,.266.266v1.7a8.845,8.845,0,0,1,2.5-1.567,10.14,10.14,0,0,1,3.851-.717,8.459,8.459,0,0,1,6.187,2.31c1.567,1.54,2.363,3.824,2.363,6.825V92.007C631.732,92.166,631.625,92.272,631.466,92.272Zm-5.523-.531h5.284V80.535c0-2.841-.744-5.019-2.2-6.426a7.985,7.985,0,0,0-5.816-2.151,9.675,9.675,0,0,0-3.665.664,7.856,7.856,0,0,0-2.762,1.885.3.3,0,0,1-.292.08.232.232,0,0,1-.159-.239V72.276h-5.019V91.741H616.6V82.1a5.821,5.821,0,0,1,1.381-4.222,4.9,4.9,0,0,1,3.691-1.434,4.065,4.065,0,0,1,3.213,1.275A5.439,5.439,0,0,1,626,81.464V91.741Z" transform="translate(-610.7 -71.4)"/>
  </g>
  <g id="Group_19" data-name="Group 19" transform="translate(186.263 18.907)">
    <path id="Path_20" data-name="Path 20" class="cls-1" d="M706.2,92.5a12.8,12.8,0,0,1-3.8-1.54l1.939-4.169a12.153,12.153,0,0,0,3.24,1.407,13.1,13.1,0,0,0,3.718.531c2.47,0,3.691-.611,3.691-1.832a1.3,1.3,0,0,0-1.009-1.222,16.3,16.3,0,0,0-3.08-.637,28.815,28.815,0,0,1-4.063-.85,6.363,6.363,0,0,1-2.762-1.7,4.943,4.943,0,0,1-1.168-3.505,5.566,5.566,0,0,1,1.089-3.372,7.005,7.005,0,0,1,3.213-2.284,13.42,13.42,0,0,1,4.966-.823,19.067,19.067,0,0,1,4.222.478,12.569,12.569,0,0,1,3.479,1.275L717.935,78.4a11.643,11.643,0,0,0-5.762-1.487,5.819,5.819,0,0,0-2.788.531,1.546,1.546,0,0,0-.93,1.328,1.34,1.34,0,0,0,1.009,1.3,19.511,19.511,0,0,0,3.213.717,30.491,30.491,0,0,1,4.01.876,6.1,6.1,0,0,1,2.709,1.7,4.813,4.813,0,0,1,1.142,3.426,5.326,5.326,0,0,1-1.115,3.319,7.194,7.194,0,0,1-3.266,2.257,14.632,14.632,0,0,1-5.072.8A21.449,21.449,0,0,1,706.2,92.5Z" transform="translate(-702.14 -72.155)"/>
    <path id="Path_21" data-name="Path 21" class="cls-1" d="M710.365,92.417a20.456,20.456,0,0,1-4.939-.611h0a13.016,13.016,0,0,1-3.877-1.593.29.29,0,0,1-.106-.345l1.938-4.169a.2.2,0,0,1,.159-.133.282.282,0,0,1,.212.027,11.927,11.927,0,0,0,3.16,1.354,13.7,13.7,0,0,0,3.638.531c2.257,0,3.426-.531,3.426-1.567,0-.292-.08-.69-.823-.983a14.1,14.1,0,0,0-3.027-.611,25.56,25.56,0,0,1-4.09-.876,6.711,6.711,0,0,1-2.894-1.779,5.172,5.172,0,0,1-1.248-3.691,5.909,5.909,0,0,1,1.142-3.532,7.727,7.727,0,0,1,3.319-2.39,13.99,13.99,0,0,1,5.072-.85,19.361,19.361,0,0,1,4.275.478,12.018,12.018,0,0,1,3.558,1.328.29.29,0,0,1,.106.345l-1.912,4.169c-.027.08-.08.106-.159.133a.2.2,0,0,1-.212-.027,11.477,11.477,0,0,0-5.63-1.461,5.631,5.631,0,0,0-2.656.478,1.282,1.282,0,0,0-.8,1.115,1.085,1.085,0,0,0,.823,1.062,16.742,16.742,0,0,0,3.16.69,38.24,38.24,0,0,1,4.063.876,6.3,6.3,0,0,1,2.841,1.779,5.044,5.044,0,0,1,1.221,3.611,5.608,5.608,0,0,1-1.168,3.479,7.463,7.463,0,0,1-3.372,2.337A14.872,14.872,0,0,1,710.365,92.417Zm-8.338-2.523a12.712,12.712,0,0,0,3.532,1.381h0a19.548,19.548,0,0,0,4.806.611,14.166,14.166,0,0,0,4.992-.8,6.783,6.783,0,0,0,3.134-2.178,4.991,4.991,0,0,0,1.062-3.16,4.594,4.594,0,0,0-1.089-3.24,5.985,5.985,0,0,0-2.6-1.62q-1.553-.438-3.983-.876a18,18,0,0,1-3.24-.717,1.564,1.564,0,0,1-1.168-1.54,1.817,1.817,0,0,1,1.062-1.567,6.057,6.057,0,0,1,2.921-.558,12.116,12.116,0,0,1,5.656,1.381l1.7-3.665a12.345,12.345,0,0,0-3.187-1.142,20.24,20.24,0,0,0-4.169-.451,13.658,13.658,0,0,0-4.886.8,6.842,6.842,0,0,0-3.08,2.2,5.281,5.281,0,0,0-1.036,3.213,4.714,4.714,0,0,0,1.089,3.319,6.313,6.313,0,0,0,2.655,1.646,28.7,28.7,0,0,0,4.01.85,17.061,17.061,0,0,1,3.133.637,1.531,1.531,0,0,1,1.168,1.487c0,1.381-1.328,2.1-3.957,2.1a13.556,13.556,0,0,1-3.8-.558,12.879,12.879,0,0,1-3.054-1.275Z" transform="translate(-701.422 -71.2)"/>
  </g>
</svg>
