<svg xmlns="http://www.w3.org/2000/svg" width="21.5" height="20" viewBox="0 0 21.5 20">
  <path id="webhook" d="M14,4a4.977,4.977,0,0,0-2.953,9L8.578,17.078l-.063-.016A2.012,2.012,0,1,0,9.734,18a2.085,2.085,0,0,0-.312-.391l2.719-4.469.266-.437-.437-.25A4,4,0,1,1,18,9a3.921,3.921,0,0,1-.172,1.172l.954.3A4.94,4.94,0,0,0,19,9,5.007,5.007,0,0,0,14,4Zm0,3a2,2,0,1,0,.485,3.938L16.891,15.3l.234.438.453-.234A3.944,3.944,0,0,1,19.5,15a4,4,0,1,1-2.781,6.875l-.688.719A5,5,0,1,0,19.5,14a4.921,4.921,0,0,0-1.937.438l-2.2-3.984A1.99,1.99,0,0,0,14,7ZM6.781,14.141A5,5,0,1,0,12.906,19.5h4.671a2,2,0,1,0,0-1H12V19a4,4,0,1,1-4.968-3.875Z" transform="translate(-3 -4)" fill="#e7eaf0"/>
</svg>
