<svg id="Group_647" data-name="Group 647" xmlns="http://www.w3.org/2000/svg" width="24" height="24" viewBox="0 0 24 24">
  <g id="atom" transform="translate(2.001 0.691)">
    <path id="Path_483" data-name="Path 483" d="M181.711,208a1.508,1.508,0,1,1-1.508,1.508A1.508,1.508,0,0,1,181.711,208Zm0,0" transform="translate(-171.713 -198.199)" fill="#e7eaf0"/>
    <path id="Path_484" data-name="Path 484" d="M183.219,209.508A1.508,1.508,0,1,1,181.711,208,1.508,1.508,0,0,1,183.219,209.508Zm0,0" transform="translate(-171.713 -198.199)" fill="#e7eaf0"/>
    <g id="Group_658" data-name="Group 658" transform="translate(-0.001)">
      <path id="Path_485" data-name="Path 485" d="M174.088,200a1.885,1.885,0,1,0,1.885,1.885A1.885,1.885,0,0,0,174.088,200Zm0,3.016a1.131,1.131,0,1,1,1.131-1.131A1.131,1.131,0,0,1,174.088,203.016Zm0,0" transform="translate(-164.089 -190.576)" fill="#e7eaf0"/>
      <path id="Path_486" data-name="Path 486" d="M16.558,11.309A19.287,19.287,0,0,0,18.17,9.778c1.612-1.744,2.174-3.17,1.623-4.123C19,4.285,16.343,4.539,13.279,5.628,12.69,2.431,11.579,0,10,0S7.307,2.431,6.719,5.628C3.655,4.539,1,4.285.2,5.655c-.55.953.011,2.379,1.623,4.123a19.327,19.327,0,0,0,1.611,1.531A19.287,19.287,0,0,0,1.826,12.84C.215,14.584-.346,16.01.2,16.964a2.412,2.412,0,0,0,2.25.937,13.547,13.547,0,0,0,4.264-.912c.588,3.2,1.7,5.629,3.28,5.629s2.691-2.431,3.28-5.628a13.556,13.556,0,0,0,4.264.911,2.414,2.414,0,0,0,2.25-.937c.55-.953-.011-2.379-1.623-4.123A19.327,19.327,0,0,0,16.558,11.309Zm2.583-5.278c.353.611-.217,1.821-1.524,3.234a18.889,18.889,0,0,1-1.647,1.555c-.7-.56-1.454-1.115-2.268-1.652-.059-.954-.158-1.895-.3-2.79,3.038-1.091,5.253-1.177,5.733-.347Zm-7.635,7.889q-.767.442-1.508.822-.74-.38-1.508-.822c-.5-.292-.992-.593-1.466-.9q-.041-.829-.042-1.712T7.024,9.6c.475-.306.962-.608,1.466-.9S9.5,8.129,10,7.875q.741.381,1.508.822c.5.292.992.593,1.466.9q.041.829.041,1.712t-.041,1.712C12.5,13.327,12.011,13.629,11.506,13.921Zm1.407.034c-.055.709-.131,1.382-.226,2.014-.595-.235-1.216-.505-1.858-.813.354-.188.706-.382,1.053-.582S12.577,14.164,12.914,13.954Zm-3.747,1.2c-.641.307-1.263.578-1.858.813-.094-.632-.17-1.305-.226-2.014q.506.315,1.03.62C8.46,14.774,8.812,14.966,9.166,15.154ZM6.25,12.505q-.861-.589-1.626-1.2.763-.606,1.626-1.2c-.014.4-.022.8-.022,1.2s.008.8.022,1.2Zm.833-3.843c.055-.709.131-1.381.226-2.013.594.235,1.215.505,1.856.812q-.531.282-1.05.581t-1.032.621Zm3.748-1.2c.641-.307,1.263-.577,1.857-.812.094.632.17,1.305.226,2.014q-.507-.317-1.032-.622C11.537,7.844,11.186,7.652,10.831,7.464Zm2.915,2.649q.861.589,1.626,1.2-.763.605-1.626,1.2c.013-.4.021-.8.021-1.2s-.008-.8-.021-1.2ZM10,.754c.96,0,1.992,1.963,2.565,5.14-.844.328-1.708.713-2.563,1.139-.857-.426-1.722-.811-2.564-1.139C8.006,2.717,9.039.754,10,.754ZM2.381,9.266C1.074,7.852.5,6.643.857,6.032c.213-.369.767-.557,1.583-.557a13.17,13.17,0,0,1,4.151.9c-.137.893-.236,1.833-.3,2.787-.814.538-1.572,1.093-2.268,1.652A18.87,18.87,0,0,1,2.381,9.266ZM.857,16.587c-.353-.611.217-1.821,1.524-3.234A18.86,18.86,0,0,1,4.028,11.8c.7.56,1.454,1.115,2.268,1.652.059.954.158,1.895.3,2.79C3.552,17.33,1.337,17.416.857,16.587ZM10,21.864c-.959,0-1.991-1.963-2.563-5.14.843-.328,1.708-.713,2.565-1.139.857.426,1.722.811,2.565,1.139C11.99,19.9,10.958,21.864,10,21.864Zm9.141-5.278c-.479.829-2.7.743-5.734-.348.137-.894.236-1.834.3-2.79.814-.537,1.572-1.093,2.268-1.652a18.833,18.833,0,0,1,1.647,1.555C18.923,14.766,19.492,15.975,19.139,16.587Zm0,0" transform="translate(0.001)" fill="#e7eaf0"/>
    </g>
  </g>
  <path id="Path_487" data-name="Path 487" d="M0,0H24V24H0Z" fill="none"/>
</svg>
