<svg id="Group_663" data-name="Group 663" xmlns="http://www.w3.org/2000/svg" width="24" height="24" viewBox="0 0 24 24">
  <path id="Path_489" data-name="Path 489" d="M0,0H24V24H0Z" fill="none"/>
  <g id="iconfinder__ember_2560043" transform="translate(-0.281 -0.072)">
    <g id="Group_667" data-name="Group 667">
      <g id="Group_666" data-name="Group 666">
        <path id="Path_490" data-name="Path 490" d="M11.8,23.5a9.15,9.15,0,0,1-1.7-.1,9.592,9.592,0,0,1-3.5-1.1,5.812,5.812,0,0,1-2.5-2.4A7.216,7.216,0,0,1,3.3,16a12.656,12.656,0,0,1,1.1-4A23.811,23.811,0,0,1,6.2,9,15.357,15.357,0,0,1,8,6.7l.1-.1a.446.446,0,0,1,.5,0c.2,0,.3.2.3.4a7.772,7.772,0,0,0,.2,1.6,2.384,2.384,0,0,0,.6,1.1,10.183,10.183,0,0,0,1.8-1.8,5.7,5.7,0,0,0,1.1-2.8,7.421,7.421,0,0,0-.5-3.9c-.1-.2,0-.4.2-.6a.638.638,0,0,1,.6,0,1.38,1.38,0,0,0,.4.3l.2.2A27.439,27.439,0,0,1,18,6.5a18.741,18.741,0,0,1,2.6,6.3,16.446,16.446,0,0,1,.2,3.8c-.1.6-.2,1.2-.3,1.6a10.243,10.243,0,0,1-1,2.1A7.809,7.809,0,0,1,18,21.9a7.5,7.5,0,0,1-2,1,16.367,16.367,0,0,1-2.7.5A7.569,7.569,0,0,1,11.8,23.5ZM8,8.2c-.3.4-.7.9-1,1.3a21.852,21.852,0,0,0-1.7,2.9,10.9,10.9,0,0,0-1,3.6A5.518,5.518,0,0,0,5,19.4a5.775,5.775,0,0,0,2.1,2,10.021,10.021,0,0,0,3.2,1,15,15,0,0,0,3,0,13.266,13.266,0,0,0,2.4-.4,5.559,5.559,0,0,0,1.7-.9,3.745,3.745,0,0,0,1.2-1.3,8.385,8.385,0,0,0,.9-1.9c.1-.4.2-.8.3-1.4a10.474,10.474,0,0,0-.2-3.5,18.858,18.858,0,0,0-2.4-6,20.482,20.482,0,0,0-3.6-4.4,8.156,8.156,0,0,1,0,2.7,7.008,7.008,0,0,1-1.3,3.2,10.642,10.642,0,0,1-2.4,2.3c-.1.1-.2.1-.4.1-.1,0-.3-.2-.4-.3a5.076,5.076,0,0,1-.9-1.8A1.421,1.421,0,0,1,8,8.2Z" fill="#e7eaf0"/>
      </g>
    </g>
    <g id="Group_669" data-name="Group 669">
      <g id="Group_668" data-name="Group 668">
        <path id="Path_494" data-name="Path 494" d="M11.54,20.2,8.164,16.205l.137-1.3.577-.991.954-.471c-.156-.062.253-.177,1.137.315.685.381.369.712,1,.708-.213.1-.228-.078,0-.22,1.013-.635.475-.863,1.86-.8s1.531.1,1.781,1.023a2.516,2.516,0,0,1-.593,2.771c-.965,1.093-1.591,1.822-2.374,2.557S11.54,20.2,11.54,20.2Z" fill="#e7eaf0"/>
        <path id="Path_491" data-name="Path 491" d="M12,21.4h-.2c-.1,0-.2-.1-.3-.2L8.3,17.5a3.313,3.313,0,0,1-.9-2.1,2.926,2.926,0,0,1,.8-1.9,2.465,2.465,0,0,1,1.7-.8,3.4,3.4,0,0,1,2.1.9,3.159,3.159,0,0,1,2.1-.9,2.465,2.465,0,0,1,1.7.8,2.5,2.5,0,0,1,.8,1.9,2.781,2.781,0,0,1-1,2.1l-3.2,3.7c-.1.1-.1.2-.2.2h-.1C12.1,21.3,12,21.4,12,21.4ZM9.9,13.7a1.389,1.389,0,0,0-1,.5A1.823,1.823,0,0,0,9,16.8l3,3.3,2.9-3.3a1.78,1.78,0,0,0,.1-2.7,1.389,1.389,0,0,0-1-.5,2.842,2.842,0,0,0-1.7.9.483.483,0,0,1-.7,0A2.491,2.491,0,0,0,9.9,13.7Z" fill="#e7eaf0"/>
      </g>
    </g>
    <g id="Group_670" data-name="Group 670">
      <path id="Path_492" data-name="Path 492" d="M12,23.4a.472.472,0,0,1-.5-.5v-2a.5.5,0,0,1,1,0v2A.536.536,0,0,1,12,23.4Z" fill="#e7eaf0"/>
    </g>
    <g id="Group_671" data-name="Group 671">
      <path id="Path_493" data-name="Path 493" d="M8.1,12.3a.367.367,0,0,1-.3-.1.483.483,0,0,1,0-.7,13.125,13.125,0,0,1,2-1.8.527.527,0,0,1,.7.2c.2.3.1.5-.2.7-.5.3-1.4,1.3-1.8,1.6A.6.6,0,0,1,8.1,12.3Z" fill="#e7eaf0"/>
    </g>
  </g>
</svg>
