<svg id="Group_723" data-name="Group 723" xmlns="http://www.w3.org/2000/svg" width="22" height="22" viewBox="0 0 22 22">
  <path id="Path_530" data-name="Path 530" d="M0,0H22V22H0Z" fill="none"/>
  <path id="iconfinder_firebase_4691533" d="M3.713,11.026,5.349.324A.378.378,0,0,1,5.657.006a.373.373,0,0,1,.394.2L7.811,3.56Zm11.62,2.6L13.774,3.774a.38.38,0,0,0-.256-.3.371.371,0,0,0-.38.093L3.315,13.622l5.436,3.115a1.1,1.1,0,0,0,1.1,0ZM10.915,5.029,9.656,2.579a.372.372,0,0,0-.664,0L3.464,12.652Z" transform="translate(1.676 2.558)" fill="#e7eaf0"/>
</svg>
