<svg xmlns="http://www.w3.org/2000/svg" width="20" height="20" viewBox="0 0 20 20">
  <g id="Group_708" data-name="Group 708" opacity="0.403">
    <path id="Path_507" data-name="Path 507" d="M0,0H20V20H0Z" fill="none"/>
    <g id="iconfinder_github_rounded_394187" transform="translate(1161.012 -1660.99)">
      <path id="Path_563" data-name="Path 563" d="M-1151.012,1662.916a8.278,8.278,0,0,0-8.278,8.278,8.28,8.28,0,0,0,5.661,7.855c.414.077.566-.18.566-.4,0-.2-.008-.85-.011-1.541-2.3.5-2.789-.977-2.789-.977a2.193,2.193,0,0,0-.919-1.211c-.751-.514.057-.5.057-.5a1.74,1.74,0,0,1,1.269.853,1.763,1.763,0,0,0,2.409.688,1.763,1.763,0,0,1,.526-1.107c-1.839-.209-3.772-.919-3.772-4.091a3.2,3.2,0,0,1,.853-2.222,2.974,2.974,0,0,1,.08-2.191s.7-.223,2.277.849a7.934,7.934,0,0,1,2.072-.279,7.953,7.953,0,0,1,2.074.279c1.58-1.071,2.274-.849,2.274-.849a2.972,2.972,0,0,1,.081,2.191,3.2,3.2,0,0,1,.852,2.222c0,3.179-1.936,3.879-3.78,4.084a1.978,1.978,0,0,1,.561,1.533c0,1.108-.009,2-.009,2.272,0,.22.149.478.568.4a8.279,8.279,0,0,0,5.656-7.854A8.278,8.278,0,0,0-1151.012,1662.916Z" fill="#e7eaf0" fill-rule="evenodd"/>
      <path id="Path_564" data-name="Path 564" d="M-1150.4,1698c-.018.041-.083.054-.142.025s-.094-.083-.074-.124.083-.054.143-.026.094.084.074.125Zm-.1-.075" transform="translate(-5.755 -23.201)" fill="#e7eaf0"/>
      <path id="Path_565" data-name="Path 565" d="M-1149.393,1698.939c-.04.036-.117.02-.169-.038s-.064-.135-.024-.172.115-.019.17.038.065.135.024.172Zm-.079-.085" transform="translate(-6.426 -23.763)" fill="#e7eaf0"/>
      <path id="Path_566" data-name="Path 566" d="M-1148.433,1700.251c-.051.035-.134,0-.185-.071s-.051-.162,0-.2.133,0,.185.07.051.163,0,.2Zm0,0" transform="translate(-7.06 -24.599)" fill="#e7eaf0"/>
      <path id="Path_567" data-name="Path 567" d="M-1147.223,1701.641c-.045.05-.142.036-.213-.032a.159.159,0,0,1-.047-.212c.046-.05.143-.036.214.032s.094.162.045.212Zm0,0" transform="translate(-7.823 -25.528)" fill="#e7eaf0"/>
      <path id="Path_568" data-name="Path 568" d="M-1145.51,1702.62c-.02.065-.113.094-.207.067s-.155-.1-.136-.17.113-.1.208-.067.155.1.135.17Zm0,0" transform="translate(-8.918 -26.239)" fill="#e7eaf0"/>
      <path id="Path_569" data-name="Path 569" d="M-1143.514,1702.886c0,.068-.077.125-.176.126s-.179-.053-.18-.12.078-.125.177-.127.179.053.179.121Zm0,0" transform="translate(-10.238 -26.456)" fill="#e7eaf0"/>
      <path id="Path_570" data-name="Path 570" d="M-1141.632,1702.618c.012.066-.057.135-.154.153s-.185-.024-.2-.09.058-.137.154-.154.186.023.2.091Zm0,0" transform="translate(-11.488 -26.295)" fill="#e7eaf0"/>
    </g>
  </g>
</svg>
