<svg xmlns="http://www.w3.org/2000/svg" width="24" height="24" viewBox="0 0 24 24">
  <g id="Group_848" data-name="Group 848" transform="translate(-12 -9)">
    <path id="Path_415" data-name="Path 415" d="M0,0H24V24H0Z" transform="translate(12 9)" fill="none"/>
    <path id="undo" d="M8,0A8.464,8.464,0,0,0,2.653,1.946L.853.146A.5.5,0,0,0,0,.5V4.833a.5.5,0,0,0,.5.5H4.833a.5.5,0,0,0,.353-.853L3.6,2.893A7.11,7.11,0,0,1,8,1.333,6.667,6.667,0,1,1,3.287,12.713a.667.667,0,0,0-.943.943A8,8,0,1,0,8,0ZM8,0" transform="translate(16 13)" fill="#c7c7c7"/>
  </g>
</svg>
